<?xml version="1.0" encoding="UTF-8"?>
<svg version="1.1" xmlns="http://www.w3.org/2000/svg" width="500" height="500">
<path d="M0 0 C165 0 330 0 500 0 C500 165 500 330 500 500 C335 500 170 500 0 500 C0 335 0 170 0 0 Z " fill="#FEFEFE" transform="translate(0,0)"/>
<path d="M0 0 C44.55 0 89.1 0 135 0 C135 32 135 32 128 41 C126.07887237 44.18134423 126.07887237 44.18134423 124.6875 47.1875 C123.98173828 48.63189453 123.98173828 48.63189453 123.26171875 50.10546875 C121.99986441 53.00031106 120.99861846 56.00414461 120 59 C112.74 59 105.48 59 98 59 C98 94.31 98 129.62 98 166 C77.87 166 57.74 166 37 166 C37 130.69 37 95.38 37 59 C24.79 59 12.58 59 0 59 C0 39.53 0 20.06 0 0 Z " fill="#171616" transform="translate(64,147)"/>
<path d="M0 0 C8.58 0.66 17.16 1.32 26 2 C26 21.14 26 40.28 26 60 C38.21 60 50.42 60 63 60 C63 95.31 63 130.62 63 167 C70.59 167 78.18 167 86 167 C80 176 80 176 78 178 C71.8798172 178.47078329 66.05082018 177.51837625 60.01171875 176.5390625 C57.09123964 176.0985968 54.22027652 175.89149116 51.26953125 175.7734375 C50.46757324 175.72687012 49.66561523 175.68030273 48.83935547 175.63232422 C47.27101772 175.54592057 45.70009198 175.49641202 44.12939453 175.48876953 C41.75242053 175.33178459 40.13338704 175.07217239 38 174 C35.6530381 170.94819844 34.38841607 167.56895075 33 164 C32.10973594 161.94719464 31.21776343 159.89512949 30.32421875 157.84375 C29.44160648 155.73071085 28.56272857 153.61610818 27.6875 151.5 C27.23310547 150.4171875 26.77871094 149.334375 26.31054688 148.21875 C25.88193359 147.1875 25.45332031 146.15625 25.01171875 145.09375 C24.62459717 144.16240234 24.23747559 143.23105469 23.83862305 142.27148438 C23 140 23 140 23 138 C22.03513672 138.02284058 22.03513672 138.02284058 21.05078125 138.04614258 C13.61341039 138.14361882 6.38079686 137.56741706 -1 136.6875 C-2.11761719 136.56955078 -3.23523438 136.45160156 -4.38671875 136.33007812 C-5.45535156 136.20439453 -6.52398438 136.07871094 -7.625 135.94921875 C-8.58664063 135.83924561 -9.54828125 135.72927246 -10.5390625 135.6159668 C-13.43799494 134.89037091 -14.24636067 134.40020827 -16 132 C-17.21130752 129.65142532 -18.32531541 127.33090483 -19.390625 124.91796875 C-19.69949646 124.2261702 -20.00836792 123.53437164 -20.32659912 122.8216095 C-20.97572989 121.35987149 -21.62101351 119.89641976 -22.26269531 118.43139648 C-23.24507204 116.19870002 -24.2507281 113.97749937 -25.2578125 111.75585938 C-25.88687605 110.33137275 -26.51452754 108.90626154 -27.140625 107.48046875 C-27.59359955 106.49109566 -27.59359955 106.49109566 -28.0557251 105.48173523 C-29.87761427 101.23783427 -30.35209719 98.43620361 -29 94 C-27.80419922 91.91699219 -27.80419922 91.91699219 -26.3046875 90.046875 C-25.75578857 89.35102295 -25.20688965 88.6551709 -24.64135742 87.93823242 C-24.05845947 87.21611572 -23.47556152 86.49399902 -22.875 85.75 C-22.00161987 84.60978394 -22.00161987 84.60978394 -21.1105957 83.4465332 C-18.63501696 80.22163476 -16.21789107 77.21221518 -13.30078125 74.37109375 C-10.83558774 71.82387901 -9.71423799 70.49600703 -9 67 C-10.36116312 59.92452003 -13.83149037 53.40873449 -17 47 C-18.19732877 44.5045087 -19.38039677 42.00277837 -20.5625 39.5 C-21.05878906 38.5203125 -21.55507813 37.540625 -22.06640625 36.53125 C-23.13858002 33.62426839 -23.00336017 32.85645757 -22 30 C-20.72827148 27.97631836 -20.72827148 27.97631836 -19.12109375 25.83984375 C-18.53489258 25.05053467 -17.94869141 24.26122559 -17.34472656 23.44799805 C-16.05729322 21.75333893 -14.76350529 20.06349128 -13.46386719 18.37817383 C-9.36340934 13.095088 -9.36340934 13.095088 -6.20703125 7.234375 C-4.75 4.1875 -4.75 4.1875 0 0 Z " fill="#ABABAB" transform="translate(38,146)"/>
<path d="M0 0 C13.86 0 27.72 0 42 0 C42.33 19.47 42.66 38.94 43 59 C47.76032896 49.72835862 47.76032896 49.72835862 52.51269531 40.45263672 C53.41133301 38.70877686 53.41133301 38.70877686 54.328125 36.9296875 C54.63153809 36.33422119 54.93495117 35.73875488 55.24755859 35.12524414 C56.13821574 33.40269339 57.06849306 31.70080747 58 30 C58.52916016 28.87916016 59.05832031 27.75832031 59.60351562 26.60351562 C62.28686198 23.68835613 62.74270447 23.58286749 66.49316406 23.31884766 C68.33425772 23.31979513 70.17552558 23.35355751 72.015625 23.4140625 C72.98659119 23.42255219 73.95755737 23.43104187 74.95794678 23.43978882 C78.05643097 23.47335215 81.15230379 23.54863819 84.25 23.625 C86.35152489 23.65509575 88.45309061 23.68247223 90.5546875 23.70703125 C95.70412977 23.77315346 100.85162233 23.87669692 106 24 C104.73166374 28.12863751 103.18883685 31.7385397 101.05859375 35.4921875 C100.47859619 36.51997314 99.89859863 37.54775879 99.30102539 38.60668945 C98.68606201 39.68523193 98.07109863 40.76377441 97.4375 41.875 C96.81286865 42.98383545 96.1882373 44.0926709 95.54467773 45.23510742 C92.7459125 50.19807814 89.92549071 55.14605719 87.0390625 60.05859375 C86.61439697 60.78900879 86.18973145 61.51942383 85.75219727 62.27197266 C84.97964749 63.59702315 84.19681603 64.91615167 83.40209961 66.22802734 C81.46665251 69.38533996 81.46665251 69.38533996 81.28369141 72.95947266 C82.02185711 75.06226372 82.90929483 76.76688578 84.08203125 78.66015625 C84.51370605 79.36213135 84.94538086 80.06410645 85.39013672 80.78735352 C85.8595166 81.53815186 86.32889648 82.2889502 86.8125 83.0625 C87.29734863 83.8474585 87.78219727 84.63241699 88.28173828 85.44116211 C92.41655583 92.11677017 96.61404784 98.75413578 100.85083008 105.36547852 C101.32029053 106.10209717 101.78975098 106.83871582 102.2734375 107.59765625 C102.67997559 108.23195557 103.08651367 108.86625488 103.50537109 109.51977539 C105.77577994 113.28734865 107.88001749 117.14627908 110 121 C72.3866913 125.32856287 72.3866913 125.32856287 62.99530029 119.82525635 C55.99513726 113.99382226 52.39178113 104.98188332 49.4140625 96.59204102 C47.68858642 92.20893854 45.28762333 88.117722 43 84 C42.67 96.21 42.34 108.42 42 121 C28.14 121 14.28 121 0 121 C0 81.07 0 41.14 0 0 Z " fill="#171616" transform="translate(350,196)"/>
<path d="M0 0 C4.40283248 4.20270373 9.62407991 9.39172484 9.87025452 15.71279907 C9.87316373 17.0541369 9.87047298 18.39549341 9.86352539 19.73681641 C9.86367142 20.46862625 9.86381744 21.2004361 9.8639679 21.954422 C9.86327003 24.37849876 9.85548354 26.80249912 9.84765625 29.2265625 C9.84579162 30.90522215 9.84436793 32.58388234 9.84336853 34.26254272 C9.83954688 38.68487038 9.82971959 43.10716528 9.81866455 47.52947998 C9.8066463 52.83333662 9.80204651 58.1372042 9.79621124 63.44107056 C9.78650766 71.50240316 9.76734864 79.56366389 9.75 87.625 C-1.8 87.625 -13.35 87.625 -25.25 87.625 C-25.28738281 83.84546875 -25.32476562 80.0659375 -25.36328125 76.171875 C-25.40948114 72.51475202 -25.46072054 68.85773202 -25.51245117 65.20068359 C-25.54572254 62.65745288 -25.57374749 60.11414793 -25.59643555 57.57080078 C-25.62994006 53.91667011 -25.68225561 50.26322112 -25.73828125 46.609375 C-25.74467117 45.47070984 -25.7510611 44.33204468 -25.75764465 43.15887451 C-25.77743881 42.09807678 -25.79723297 41.03727905 -25.81762695 39.94433594 C-25.83428154 38.54535065 -25.83428154 38.54535065 -25.85127258 37.11810303 C-26.3224072 34.17226308 -27.21289137 32.77716423 -29.25 30.625 C-31.41839991 30.03207878 -31.41839991 30.03207878 -33.75 30.1875 C-34.5234375 30.18878906 -35.296875 30.19007813 -36.09375 30.19140625 C-38.74804708 30.72515077 -39.64745252 31.46656887 -41.25 33.625 C-41.88896758 37.93803119 -41.76115991 39.89020763 -39.25 43.5 C-35.76149521 46.32568807 -35.76149521 46.32568807 -28.25 46.625 C-28.25 60.155 -28.25 73.685 -28.25 87.625 C-44.57238243 87.625 -57.33613698 84.91531314 -69.41015625 73.58203125 C-80.08750001 62.2246019 -84.0369467 49.61951242 -83.83959961 34.31762695 C-83.27336575 20.84908815 -77.59061721 9.65325052 -67.86328125 0.33984375 C-47.19582209 -17.01822635 -21.24547647 -16.30466799 0 0 Z " fill="#181717" transform="translate(273.25,180.375)"/>
<path d="M0 0 C14.19 0 28.38 0 43 0 C43 39.93 43 79.86 43 121 C28.81 121 14.62 121 0 121 C0 81.07 0 41.14 0 0 Z " fill="#191818" transform="translate(289,196)"/>
<path d="M0 0 C0.33 0 0.66 0 1 0 C1 6.93 1 13.86 1 21 C5.640625 21.2784375 5.640625 21.2784375 10.375 21.5625 C11.34872559 21.62381104 12.32245117 21.68512207 13.32568359 21.74829102 C14.47544678 21.81294556 14.47544678 21.81294556 15.6484375 21.87890625 C16.82672119 21.94960327 16.82672119 21.94960327 18.02880859 22.02172852 C20.07878964 22.14282506 20.07878964 22.14282506 22 21 C22.24234375 21.845625 22.4846875 22.69125 22.734375 23.5625 C24.66482433 30.09632852 26.76761086 36.02371783 30 42 C31.25848759 44.45445852 32.50816445 46.912187 33.75 49.375 C34.06815674 49.9949585 34.38631348 50.61491699 34.71411133 51.25366211 C37 55.77245321 37 55.77245321 37 58 C37.8353125 58.03867187 37.8353125 58.03867187 38.6875 58.078125 C44.68293548 58.52373169 48.76741536 60.05072502 54 63 C53.34 67.62 52.68 72.24 52 77 C54.31 77.33 56.62 77.66 59 78 C64.60995045 81.02937324 68.60271161 85.0058106 71.3125 90.8125 C72.77316227 97.58466144 72.69516533 103.0670496 69.28515625 109.21484375 C67.25358542 112.03681296 64.73696469 113.87124968 62 116 C61.505 117.485 61.505 117.485 61 119 C60.01 118.67 59.02 118.34 58 118 C56.23051542 117.87499716 54.45931952 117.77327273 52.6875 117.6875 C46.35454646 117.1444367 43.00817847 115.17100375 38.6875 110.5 C37.14668622 108.21731291 36.39891965 106.69270763 36 104 C35.34 104 34.68 104 34 104 C33.61073825 96.99328849 34.13757274 89.84710224 38.46484375 84.03125 C40.0625 82.375 40.0625 82.375 43 80 C43.66 80 44.32 80 45 80 C44.38003922 78.70590711 43.75383647 77.41480327 43.125 76.125 C42.77695313 75.40570313 42.42890625 74.68640625 42.0703125 73.9453125 C41.03442457 71.84864981 41.03442457 71.84864981 39 70 C36.5417707 69.83328148 36.5417707 69.83328148 34 70 C33.01 70 32.02 70 31 70 C29.28540932 71.73299647 29.28540932 71.73299647 27.6796875 74.05078125 C27.06222656 74.89447266 26.44476563 75.73816406 25.80859375 76.60742188 C25.17050781 77.50009766 24.53242188 78.39277344 23.875 79.3125 C23.22917969 80.19357422 22.58335937 81.07464844 21.91796875 81.98242188 C18.40704457 86.69635788 18.40704457 86.69635788 16 92 C17.4188787 95.32106295 19.08335787 98.47270341 20.75 101.67578125 C22.13447093 105.35760862 21.99839731 107.25033739 21 111 C17.97868174 109.48934087 17.91115263 107.00210386 16.89282227 103.96655273 C14.57800277 96.48130331 14.57800277 96.48130331 9.09375 91.4296875 C5.74137956 90.79594173 5.74137956 90.79594173 1 91 C1 96.28 1 101.56 1 107 C0.67 107 0.34 107 0 107 C0 71.69 0 36.38 0 0 Z " fill="#A4A4A4" transform="translate(162,206)"/>
<path d="M0 0 C3.07581753 0.07335269 6.02779114 0.39880481 9.07495117 0.82202148 C10.0881543 0.93223633 11.10135742 1.04245117 12.14526367 1.15600586 C14.22199672 1.39128131 16.29461948 1.66577909 18.36132812 1.97705078 C21.6009962 2.45207968 21.6009962 2.45207968 24.99755859 2.41113281 C28.65087204 2.56714526 31.23268832 2.87890952 34.57495117 4.38452148 C38.09319806 8.91963594 39.92453725 13.84815809 41.88745117 19.19702148 C42.44992628 20.59275705 43.01694947 21.98666882 43.58862305 23.37866211 C48.24114474 34.99153872 48.24114474 34.99153872 47.57495117 39.38452148 C46.16967773 41.78466797 46.16967773 41.78466797 44.21557617 44.25561523 C43.51174805 45.15989258 42.80791992 46.06416992 42.08276367 46.99584961 C41.33768555 47.92848633 40.59260742 48.86112305 39.82495117 49.82202148 C38.37032819 51.67371028 36.91716184 53.52654445 35.46557617 55.38061523 C34.7855957 56.24541504 34.10561523 57.11021484 33.4050293 58.0012207 C31.31708757 60.72033585 29.41061108 63.49094179 27.57495117 66.38452148 C24.22027321 66.09856702 20.86633696 65.80461058 17.51245117 65.50952148 C16.58883789 65.43088867 15.66522461 65.35225586 14.71362305 65.27124023 C12.75462998 65.09740467 10.79783477 64.897367 8.84375 64.67504883 C5.4893527 64.32234631 5.4893527 64.32234631 1.76513672 64.42602539 C-7.71539743 64.13761279 -7.71539743 64.13761279 -10.77865601 60.996521 C-13.39105558 57.22205844 -15.06371613 53.06977693 -16.64794922 48.78149414 C-17.49209061 46.49723133 -18.41411171 44.25864154 -19.35668945 42.01342773 C-19.93760439 40.57914174 -20.51394584 39.14299301 -21.08520508 37.70483398 C-21.35470474 37.0317923 -21.62420441 36.35875061 -21.90187073 35.66531372 C-23.6102996 30.99780552 -23.6102996 30.99780552 -22.76391602 28.19580078 C-22.32208984 27.59807861 -21.88026367 27.00035645 -21.42504883 26.38452148 C-20.95220459 25.69575928 -20.47936035 25.00699707 -19.9921875 24.29736328 C-19.44796143 23.56686768 -18.90373535 22.83637207 -18.34301758 22.08374023 C-17.74038086 21.27098633 -17.13774414 20.45823242 -16.5168457 19.62084961 C-15.88842773 18.77973633 -15.26000977 17.93862305 -14.61254883 17.07202148 C-13.37639871 15.40961271 -12.14071385 13.74685785 -10.90551758 12.08374023 C-10.30078613 11.2907251 -9.69605469 10.49770996 -9.07299805 9.68066406 C-7.40616425 7.46597682 -7.40616425 7.46597682 -6.26538086 5.20361328 C-4.66203154 2.28095532 -3.37377736 0.53495413 0 0 Z " fill="#FEFEFE" transform="translate(34.425048828125,214.615478515625)"/>
<path d="M0 0 C1.26457031 0.14179688 2.52914062 0.28359375 3.83203125 0.4296875 C5.08371094 0.55601562 6.33539063 0.68234375 7.625 0.8125 C9.61466797 1.05613281 9.61466797 1.05613281 11.64453125 1.3046875 C14.61453125 1.6346875 17.58453125 1.9646875 20.64453125 2.3046875 C20.64453125 20.1246875 20.64453125 37.9446875 20.64453125 56.3046875 C24.60453125 56.3046875 28.56453125 56.3046875 32.64453125 56.3046875 C27.30835087 65.11558999 27.30835087 65.11558999 24.47363281 65.9230957 C13.41519842 67.41466741 -0.09831694 67.02438868 -10.35546875 62.3046875 C-16.62831167 55.73706158 -19.23190485 46.90117906 -21.53466797 38.28735352 C-22.27455511 35.31213611 -22.27455511 35.31213611 -23.52392578 32.66381836 C-24.49297127 29.91458566 -24.48079275 28.96463332 -23.35546875 26.3046875 C-21.83666992 24.00219727 -21.83666992 24.00219727 -19.8984375 21.49609375 C-19.19783203 20.58408203 -18.49722656 19.67207031 -17.77539062 18.73242188 C-17.03869141 17.78689453 -16.30199219 16.84136719 -15.54296875 15.8671875 C-14.81787109 14.92552734 -14.09277344 13.98386719 -13.34570312 13.01367188 C-11.35798346 10.43672882 -9.3636923 7.8656803 -7.35546875 5.3046875 C-6.68515625 4.38405518 -6.01484375 3.46342285 -5.32421875 2.51489258 C-3.35546875 0.3046875 -3.35546875 0.3046875 0 0 Z " fill="#FDFDFD" transform="translate(43.35546875,149.6953125)"/>
<path d="M0 0 C0.92941406 0.04898438 1.85882813 0.09796875 2.81640625 0.1484375 C4.20666016 0.19871094 4.20666016 0.19871094 5.625 0.25 C8.37890625 0.5234375 8.37890625 0.5234375 13.37890625 1.5234375 C13.37890625 20.3334375 13.37890625 39.1434375 13.37890625 58.5234375 C19.31890625 58.5234375 25.25890625 58.5234375 31.37890625 58.5234375 C30.05890625 60.8334375 28.73890625 63.1434375 27.37890625 65.5234375 C19.23917842 65.77728983 11.33000481 64.9832308 3.25390625 64.0234375 C2.01125 63.88035156 0.76859375 63.73726563 -0.51171875 63.58984375 C-3.5487996 63.23941134 -6.58518225 62.88383617 -9.62109375 62.5234375 C-11.64801145 58.0458854 -13.6596587 53.56190343 -15.6574707 49.07128906 C-16.33918662 47.54468658 -17.02503524 46.0199226 -17.71508789 44.49707031 C-18.70641481 42.30744398 -19.68267841 40.11163029 -20.65625 37.9140625 C-20.9676442 37.2347467 -21.27903839 36.55543091 -21.59986877 35.85552979 C-23.65066604 31.17146595 -23.65066604 31.17146595 -23.52246094 28.36206055 C-22.3191608 25.9075499 -20.83732945 23.87835115 -19.1640625 21.71484375 C-18.46345703 20.80283203 -17.76285156 19.89082031 -17.04101562 18.95117188 C-16.30431641 18.00564453 -15.56761719 17.06011719 -14.80859375 16.0859375 C-14.08349609 15.14427734 -13.35839844 14.20261719 -12.61132812 13.23242188 C-10.62360846 10.65547882 -8.6293173 8.0844303 -6.62109375 5.5234375 C-5.93563477 4.60731689 -5.25017578 3.69119629 -4.54394531 2.74731445 C-2.62109375 0.5234375 -2.62109375 0.5234375 0 0 Z " fill="#FDFDFD" transform="translate(87.62109375,254.4765625)"/>
<path d="M0 0 C6.27 0.66 12.54 1.32 19 2 C20.77125109 6.02064976 22.54201533 10.04151276 24.3125 14.0625 C25.06176758 15.7630957 25.06176758 15.7630957 25.82617188 17.49804688 C26.79343745 19.69521305 27.75726285 21.89389761 28.71728516 24.09423828 C29.47715995 25.81559911 30.25222833 27.53059733 31.06005859 29.22998047 C33.06404695 33.50142976 33.06404695 33.50142976 32.75195312 35.9309082 C31.86285942 38.37735922 30.67171849 40.01066427 29.05078125 42.046875 C28.44943359 42.81 27.84808594 43.573125 27.22851562 44.359375 C26.59623047 45.14828125 25.96394531 45.9371875 25.3125 46.75 C24.07876316 48.30676573 22.8456851 49.8640538 21.61328125 51.421875 C21.00605225 52.17992432 20.39882324 52.93797363 19.77319336 53.71899414 C18.59878758 55.22972981 17.46289914 56.77127329 16.36938477 58.34155273 C15.86334717 59.06802002 15.35730957 59.7944873 14.8359375 60.54296875 C14.39942871 61.19547607 13.96291992 61.8479834 13.51318359 62.52026367 C11.49601392 64.49284602 10.08300429 64.49802196 7.3125 64.5625 C4.6185806 64.34382261 2.58953984 63.86317995 0 63 C0 42.21 0 21.42 0 0 Z " fill="#FEFEFE" transform="translate(163,230)"/>
<path d="M0 0 C2.8301913 3.38263104 4.5032781 7.09118459 6.1875 11.125 C6.46013672 11.75792969 6.73277344 12.39085937 7.01367188 13.04296875 C9 17.7324953 9 17.7324953 9 20 C9.81339844 20.04898437 10.62679687 20.09796875 11.46484375 20.1484375 C21.02489391 20.77215281 30.49555093 21.81482051 40 23 C40 24.32 40 25.64 40 27 C32.76252805 26.33346916 25.57280969 25.4417338 18.375 24.4375 C17.37082031 24.29892578 16.36664063 24.16035156 15.33203125 24.01757812 C12.88778676 23.6800396 10.44378839 23.34082223 8 23 C7.73429199 23.56984619 7.46858398 24.13969238 7.19482422 24.72680664 C5.93424196 27.1251069 4.49523894 29.19453041 2.8828125 31.37109375 C1.97208984 32.60375977 1.97208984 32.60375977 1.04296875 33.86132812 C0.41003906 34.71146484 -0.22289062 35.56160156 -0.875 36.4375 C-1.50019531 37.28376953 -2.12539062 38.13003906 -2.76953125 39.00195312 C-3.68412109 40.23655273 -3.68412109 40.23655273 -4.6171875 41.49609375 C-5.19823242 42.29128418 -5.77927734 43.08647461 -6.37792969 43.90576172 C-8 46 -8 46 -10.6328125 48.53515625 C-12.21463531 50.81047891 -12.21463531 50.81047891 -11.75219727 52.87890625 C-10.98920519 55.34070279 -10.03821829 57.64065675 -9 60 C-8.60377441 60.93956543 -8.20754883 61.87913086 -7.79931641 62.84716797 C-6.49799474 65.89020517 -5.16111201 68.91514698 -3.8125 71.9375 C-2.89901713 73.98680163 -1.98868864 76.03751324 -1.08203125 78.08984375 C-0.68218018 78.98566162 -0.2823291 79.88147949 0.12963867 80.80444336 C1 83 1 83 1 85 C1.84820312 85.04898438 2.69640625 85.09796875 3.5703125 85.1484375 C9.88430828 85.550868 16.0572467 86.10067806 22.3125 87.0625 C23.46878906 87.21847656 24.62507813 87.37445313 25.81640625 87.53515625 C29 88 29 88 31.52734375 88.62109375 C34.22562777 89.08108241 35.48034877 89.1218885 38 88 C41.40066864 84.25276641 44.04103568 80.18668662 46.73291016 75.91601562 C47.96062282 74.05954376 49.26711111 72.33776576 50.66796875 70.609375 C51.09142578 70.08375977 51.51488281 69.55814453 51.95117188 69.01660156 C53.12246437 67.57977909 54.30125275 66.14907673 55.48046875 64.71875 C57.24803814 62.09770663 57.24803814 62.09770663 56.9296875 59.10546875 C55.86241389 55.54041613 54.4895012 52.18657222 52.9375 48.8125 C50 42.39302059 50 42.39302059 50 39 C51.89038086 39.25219727 51.89038086 39.25219727 54 40 C55.01391602 41.73413086 55.01391602 41.73413086 55.75390625 43.96484375 C58.52880314 52.85750227 58.52880314 52.85750227 64.40234375 59.56640625 C67.32772894 60.05470363 70.03415134 60.05076025 73 60 C75.71517062 60.34947741 78.41777913 60.72449354 81.125 61.125 C83.75899118 61.46948577 86.35867167 61.75973554 89 62 C90.12088013 62.16145508 90.12088013 62.16145508 91.2644043 62.32617188 C94.7015725 62.64190038 97.00452845 62.77560453 99.80175781 60.59619141 C101.55915266 58.56718014 103.06501066 56.47753597 104.5625 54.25 C105.39092407 53.09866577 105.39092407 53.09866577 106.23608398 51.92407227 C110.14698726 46.43988938 113.83960978 40.79619313 117.31640625 35.02734375 C117.87199219 34.35832031 118.42757812 33.68929687 119 33 C120.32 33 121.64 33 123 33 C122.38216207 36.35875739 121.16484756 38.4433266 119.12109375 41.16015625 C118.53384521 41.94938477 117.94659668 42.73861328 117.34155273 43.55175781 C116.05904243 45.24291513 114.77599119 46.93366234 113.49243164 48.62402344 C109.39125106 54.02153766 109.39125106 54.02153766 105.75 59.73046875 C104.01404912 62.62247312 102.60319822 64.85418614 100 67 C95.45956975 67.81462518 91.47660862 66.9135936 87 66 C84.95918553 65.70051361 82.91655352 65.44036638 80.86914062 65.19018555 C78.91634938 64.95025927 76.96771084 64.67721564 75.01953125 64.40234375 C73.68021706 64.26304016 72.34031511 64.12931904 71 64 C69.77108032 63.83636963 69.77108032 63.83636963 68.51733398 63.66943359 C63.50516368 63.25049546 63.50516368 63.25049546 59.1315918 65.40405273 C57.38131552 67.42971208 55.90768087 69.51307635 54.4375 71.75 C53.88578125 72.51683105 53.3340625 73.28366211 52.765625 74.07373047 C50.25277212 77.58308474 47.88352035 81.15617254 45.62890625 84.8359375 C44.92636719 85.92132813 44.22382813 87.00671875 43.5 88.125 C42.64921875 89.58292969 42.64921875 89.58292969 41.78125 91.0703125 C37.68629888 93.91147241 34.4041183 92.95951647 29.58447266 92.37353516 C26.06724151 92.00700719 22.77485563 92.04509788 19.24609375 92.1953125 C12.19800159 92.24312721 5.40087496 92.24269265 -1 89 C-7.64822341 81.52747973 -10.26137954 71.42256601 -13 62 C-13.58457313 60.20791799 -14.17697914 58.41834895 -14.78125 56.6328125 C-15.1834375 55.43398438 -15.585625 54.23515625 -16 53 C-17.22074219 53.02964844 -18.44148438 53.05929687 -19.69921875 53.08984375 C-25.79652653 53.08864984 -31.77086402 52.32434853 -37.8125 51.5625 C-38.93076172 51.42779297 -40.04902344 51.29308594 -41.20117188 51.15429688 C-51.1284014 49.9334918 -51.1284014 49.9334918 -54 49 C-55.30078125 47.22265625 -55.30078125 47.22265625 -56.3125 45.0625 C-56.65925781 44.35222656 -57.00601563 43.64195312 -57.36328125 42.91015625 C-57.57339844 42.27980469 -57.78351563 41.64945312 -58 41 C-57.67 40.34 -57.34 39.68 -57 39 C-55.0625 39.6875 -55.0625 39.6875 -53 41 C-52.37109375 43.58203125 -52.37109375 43.58203125 -52 46 C-51.1028125 46.04898438 -50.205625 46.09796875 -49.28125 46.1484375 C-37.76849826 46.83825114 -26.37407393 48.03713978 -15 50 C-14.73429199 49.43015381 -14.46858398 48.86030762 -14.19482422 48.27319336 C-12.93424196 45.8748931 -11.49523894 43.80546959 -9.8828125 41.62890625 C-9.27566406 40.80712891 -8.66851562 39.98535156 -8.04296875 39.13867188 C-7.41003906 38.28853516 -6.77710938 37.43839844 -6.125 36.5625 C-5.49980469 35.71623047 -4.87460938 34.86996094 -4.23046875 33.99804688 C-3.62074219 33.17498047 -3.01101562 32.35191406 -2.3828125 31.50390625 C-1.79927002 30.71467773 -1.21572754 29.92544922 -0.61450195 29.11230469 C0.68785201 27.40839323 2.08649109 25.77833117 3.51171875 24.17578125 C5.24032859 22.13326041 5.24032859 22.13326041 4.83984375 19.7890625 C4.39318359 18.71785156 4.39318359 18.71785156 3.9375 17.625 C3.63199219 16.84769531 3.32648438 16.07039063 3.01171875 15.26953125 C2.38498824 13.86362227 1.74436474 12.46370986 1.08203125 11.07421875 C-0.87596743 6.92840933 -1.19257557 4.44505439 0 0 Z " fill="#ACACAC" transform="translate(243,284)"/>
<path d="M0 0 C6.93 0 13.86 0 21 0 C21 15.18 21 30.36 21 46 C8.64022614 46 8.64022614 46 5 44 C3.50931997 41.65916651 2.50955228 39.73443459 1.5 37.19921875 C1.21519775 36.52582962 0.93039551 35.85244049 0.63696289 35.15864563 C0.04175399 33.73656001 -0.54260078 32.30988871 -1.11669922 30.87915039 C-1.99774818 28.69308722 -2.91950675 26.52774809 -3.84765625 24.36132812 C-4.42178435 22.9749966 -4.9934828 21.58765586 -5.5625 20.19921875 C-5.83835937 19.55321213 -6.11421875 18.90720551 -6.3984375 18.24162292 C-7.48333905 15.47908086 -8.09546253 13.49481742 -7.52734375 10.55004883 C-5.30757389 6.84392731 -2.59202187 3.45602916 0 0 Z " fill="#FDFDFD" transform="translate(80,206)"/>
<path d="M0 0 C1.10859375 0.14695312 2.2171875 0.29390625 3.359375 0.4453125 C4.65875 0.60257812 5.958125 0.75984375 7.296875 0.921875 C8.039375 1.02661133 8.781875 1.13134766 9.546875 1.23925781 C12.54187755 1.6261884 15.53862354 1.89179799 18.546875 2.15625 C20.81789717 2.37565826 23.08873159 2.59701848 25.359375 2.8203125 C26.46700195 2.91683105 27.57462891 3.01334961 28.71582031 3.11279297 C30.27961426 3.28512451 30.27961426 3.28512451 31.875 3.4609375 C33.27927246 3.60063965 33.27927246 3.60063965 34.71191406 3.74316406 C37.109375 4.5703125 37.109375 4.5703125 38.73828125 6.70996094 C41.23981598 11.92861851 43.62459185 17.18899963 45.94482422 22.49023438 C46.55569056 23.8796047 47.17258694 25.26633903 47.79541016 26.65039062 C48.69966015 28.65983505 49.58604164 30.67632849 50.46875 32.6953125 C50.99952148 33.89414063 51.53029297 35.09296875 52.07714844 36.328125 C53.16446366 39.74334405 53.34259542 41.24545352 52.109375 44.5703125 C50.81835937 46.33349609 50.81835937 46.33349609 49.203125 47.96875 C39.7289603 58.33379457 37.54885158 66.14524802 37.87109375 80.13671875 C37.94168851 81.61503156 38.01753078 83.09316761 38.109375 84.5703125 C37.779375 84.5703125 37.449375 84.5703125 37.109375 84.5703125 C37.109375 74.3403125 37.109375 64.1103125 37.109375 53.5703125 C-7.440625 53.5703125 -51.990625 53.5703125 -97.890625 53.5703125 C-97.890625 53.2403125 -97.890625 52.9103125 -97.890625 52.5703125 C-96.92125 52.74175781 -95.951875 52.91320312 -94.953125 53.08984375 C-90.29354954 53.55117044 -86.20465787 53.57400378 -81.890625 51.5703125 C-76.02119641 46.30806618 -71.71062695 39.51309644 -67.44604492 32.9362793 C-66.93275635 32.15551025 -66.41946777 31.37474121 -65.890625 30.5703125 C-65.40561523 29.81596924 -64.92060547 29.06162598 -64.42089844 28.28442383 C-62.890625 26.5703125 -62.890625 26.5703125 -59.17578125 26.1953125 C-52.18663487 26.51255035 -45.250203 27.5953489 -38.328125 28.5703125 C-36.92390404 28.76357325 -35.51960754 28.95628592 -34.11523438 29.1484375 C-30.70613739 29.61608234 -27.29812151 30.09112833 -23.890625 30.5703125 C-23.62419189 29.99901611 -23.35775879 29.42771973 -23.08325195 28.83911133 C-21.83417764 26.46292963 -20.41190319 24.42159738 -18.80859375 22.26953125 C-18.20595703 21.45677734 -17.60332031 20.64402344 -16.98242188 19.80664062 C-16.35400391 18.96552734 -15.72558594 18.12441406 -15.078125 17.2578125 C-13.84197488 15.59540372 -12.60629003 13.93264887 -11.37109375 12.26953125 C-10.47414795 11.0789209 -10.47414795 11.0789209 -9.55908203 9.86425781 C-7.89081591 7.62870667 -7.89081591 7.62870667 -6.54638672 5.40917969 C-3.59976463 0.71022383 -3.59976463 0.71022383 0 0 Z M-3.609375 6.4140625 C-4.1971875 7.290625 -4.785 8.1671875 -5.390625 9.0703125 C-6.08671875 10.06804687 -6.7828125 11.06578125 -7.5 12.09375 C-8.05397461 12.92471191 -8.05397461 12.92471191 -8.61914062 13.77246094 C-10.05068246 15.7966303 -11.61172218 17.65929826 -13.21875 19.546875 C-14.35978084 20.92935264 -15.50040844 22.3121632 -16.640625 23.6953125 C-17.20330078 24.33919922 -17.76597656 24.98308594 -18.34570312 25.64648438 C-21.21580369 29.23525037 -21.21580369 29.23525037 -21.72070312 33.64355469 C-20.96511513 36.02055319 -19.9140014 38.29572773 -18.890625 40.5703125 C-17.240625 44.5303125 -15.590625 48.4903125 -13.890625 52.5703125 C3.269375 52.5703125 20.429375 52.5703125 38.109375 52.5703125 C38.604375 54.5503125 38.604375 54.5503125 39.109375 56.5703125 C40.81932436 54.37652861 42.50105927 52.1685934 44.171875 49.9453125 C44.65720703 49.32785156 45.14253906 48.71039063 45.64257812 48.07421875 C46.32416992 47.15576172 46.32416992 47.15576172 47.01953125 46.21875 C47.65580444 45.38609619 47.65580444 45.38609619 48.30493164 44.53662109 C49.89402407 40.65238727 48.30565707 37.09989848 46.91015625 33.3347168 C46.17345703 31.63182495 46.17345703 31.63182495 45.421875 29.89453125 C45.15930908 29.28390335 44.89674316 28.67327545 44.6262207 28.04414368 C44.07457458 26.7646505 43.51975796 25.48652 42.96191406 24.2097168 C42.10549919 22.24893876 41.25900707 20.28410383 40.4140625 18.31835938 C38.35567185 12.54403678 38.35567185 12.54403678 35.109375 7.5703125 C31.36430547 6.885286 27.57419014 6.47800837 23.796875 6.0078125 C22.75724609 5.86923828 21.71761719 5.73066406 20.64648438 5.58789062 C8.05525739 3.31850148 8.05525739 3.31850148 -3.609375 6.4140625 Z M-69.515625 39.8828125 C-70.43021484 41.20442383 -70.43021484 41.20442383 -71.36328125 42.55273438 C-74.62042726 47.30929202 -74.62042726 47.30929202 -76.890625 52.5703125 C-57.420625 52.5703125 -37.950625 52.5703125 -17.890625 52.5703125 C-18.78405683 48.10315336 -20.12598861 44.37416849 -21.953125 40.2578125 C-22.37561523 39.29004883 -22.37561523 39.29004883 -22.80664062 38.30273438 C-23.4968993 36.72332892 -24.19315698 35.14654757 -24.890625 33.5703125 C-28.99352459 33.05954429 -33.09810383 32.56371515 -37.203125 32.0703125 C-38.35103516 31.92722656 -39.49894531 31.78414062 -40.68164062 31.63671875 C-44.08132265 31.232224 -47.48268019 30.89680265 -50.890625 30.5703125 C-51.89448242 30.43133545 -52.89833984 30.2923584 -53.93261719 30.14916992 C-62.42950106 29.38649782 -65.13400941 33.03344727 -69.515625 39.8828125 Z " fill="#AAAAAA" transform="translate(161.890625,93.4296875)"/>
<path d="M0 0 C3.15845499 2.7464826 3.76997944 4.99391906 4.23828125 9.078125 C4.43725886 14.90083831 3.43566338 19.22766515 0 24 C-1.90453906 25.82854747 -3.91047556 27.37481433 -6 29 C-6.33 29.99 -6.66 30.98 -7 32 C-7.99 31.67 -8.98 31.34 -10 31 C-11.76948458 30.87499716 -13.54068048 30.77327273 -15.3125 30.6875 C-21.61844887 30.14675241 -25.00146573 28.22059364 -29.25 23.5 C-32.64953434 18.64352237 -33.08373059 16.01464746 -33 10 C-31.90042969 10.04640625 -30.80085937 10.0928125 -29.66796875 10.140625 C-15.50080786 10.69419435 -15.50080786 10.69419435 -3.22265625 4.3984375 C-1.6546348 2.63475278 -1.6546348 2.63475278 0 0 Z " fill="#3F3C30" transform="translate(230,293)"/>
<path d="M0 0 C1.42322494 0.10389491 2.84344452 0.25576933 4.2578125 0.4453125 C5.86566417 0.64501862 7.47375051 0.84284179 9.08203125 1.0390625 C10.364729 1.20341797 10.364729 1.20341797 11.67333984 1.37109375 C14.57554936 1.58448382 17.25757059 1.37619607 20.15234375 1.1015625 C26.54966709 0.776042 32.00811474 0.73473718 37.3828125 4.5703125 C43.49899119 12.24864986 46.75629074 22.38631864 50.0078125 31.53125 C50.2679866 32.26166504 50.52816071 32.99208008 50.79621887 33.74462891 C52.09714866 37.70092777 52.85684867 40.60711829 51.3828125 44.5703125 C50.3928125 45.8903125 49.4028125 47.2103125 48.3828125 48.5703125 C53.3328125 48.5703125 58.2828125 48.5703125 63.3828125 48.5703125 C63.3828125 48.9003125 63.3828125 49.2303125 63.3828125 49.5703125 C49.5228125 49.5703125 35.6628125 49.5703125 21.3828125 49.5703125 C21.3828125 49.2403125 21.3828125 48.9103125 21.3828125 48.5703125 C22.02307373 48.57667725 22.66333496 48.58304199 23.32299805 48.58959961 C26.23994147 48.59831479 29.15373611 48.55358426 32.0703125 48.5078125 C33.07771484 48.51876953 34.08511719 48.52972656 35.12304688 48.54101562 C39.71518987 48.43492651 43.56397247 48.30610669 46.97265625 44.96875 C48.66858222 41.94876094 48.39430506 40.61652153 47.54858398 37.21606445 C46.05020512 33.10691407 44.15794036 29.19266833 42.2578125 25.2578125 C41.61410925 23.86274436 40.97344809 22.46626826 40.3359375 21.06835938 C38.41167502 16.87304279 36.44710479 12.69889708 34.3828125 8.5703125 C31.9308091 8.00384783 31.9308091 8.00384783 28.94921875 7.71875 C27.82451172 7.58984375 26.69980469 7.4609375 25.54101562 7.328125 C24.35443359 7.20179688 23.16785156 7.07546875 21.9453125 6.9453125 C20.21764648 6.74421875 20.21764648 6.74421875 18.45507812 6.5390625 C15.1005446 6.16612514 11.74496621 5.86515772 8.3828125 5.5703125 C7.45098145 5.44366211 6.51915039 5.31701172 5.55908203 5.18652344 C1.79173006 4.84449224 -0.55787676 4.73696551 -3.60522461 7.13427734 C-5.55271035 9.34868 -7.2140625 11.62889178 -8.8671875 14.0703125 C-9.72570312 15.25753906 -9.72570312 15.25753906 -10.6015625 16.46875 C-11.74102201 18.04845524 -12.86294771 19.64096715 -13.96630859 21.24609375 C-15.6171875 23.5703125 -15.6171875 23.5703125 -17.41259766 25.73828125 C-20.85382156 29.71780102 -20.85382156 29.71780102 -21.546875 34.7578125 C-21.19882812 35.6859375 -20.85078125 36.6140625 -20.4921875 37.5703125 C-20.15960938 38.5190625 -19.82703125 39.4678125 -19.484375 40.4453125 C-19.19820313 41.1465625 -18.91203125 41.8478125 -18.6171875 42.5703125 C-19.9371875 42.5703125 -21.2571875 42.5703125 -22.6171875 42.5703125 C-24.1021875 38.1153125 -24.1021875 38.1153125 -25.6171875 33.5703125 C-26.7928125 33.6115625 -27.9684375 33.6528125 -29.1796875 33.6953125 C-33.64663676 33.68106386 -38.05682446 33.32436751 -42.4921875 32.8203125 C-43.76835937 32.68109375 -45.04453125 32.541875 -46.359375 32.3984375 C-50.08446321 31.45153258 -50.57278126 30.64269701 -52.6171875 27.5703125 C-48.70007422 27.87737056 -44.78359589 28.19190084 -40.8671875 28.5078125 C-39.20042969 28.63833008 -39.20042969 28.63833008 -37.5 28.77148438 C-35.89511719 28.90200195 -35.89511719 28.90200195 -34.2578125 29.03515625 C-33.27329102 29.1137085 -32.28876953 29.19226074 -31.27441406 29.27319336 C-28.9638381 29.53155159 -26.84980867 29.9380453 -24.6171875 30.5703125 C-24.35075439 29.99901611 -24.08432129 29.42771973 -23.80981445 28.83911133 C-22.56074014 26.46292963 -21.13846569 24.42159738 -19.53515625 22.26953125 C-18.63120117 21.05040039 -18.63120117 21.05040039 -17.70898438 19.80664062 C-17.08056641 18.96552734 -16.45214844 18.12441406 -15.8046875 17.2578125 C-14.56853738 15.59540372 -13.33285253 13.93264887 -12.09765625 12.26953125 C-11.49759766 11.47579102 -10.89753906 10.68205078 -10.27929688 9.86425781 C-8.61279904 7.63647116 -8.61279904 7.63647116 -7.33007812 5.40917969 C-5.15866779 1.81493371 -4.23594224 0.66786994 0 0 Z " fill="#ADADAD" transform="translate(328.6171875,146.4296875)"/>
<path d="M0 0 C2.75327161 2.20261729 4.7539679 4.39972478 6.8125 7.25 C2.16554162 13.78086043 -2.29909788 16.62936293 -10.1875 18.25 C-15.91819893 18.67137492 -21.68797966 19.08317345 -27.1875 17.25 C-27.1875 19.56 -27.1875 21.87 -27.1875 24.25 C-27.5175 24.25 -27.8475 24.25 -28.1875 24.25 C-28.61129963 16.62160668 -27.86319197 8.74633018 -22.5625 2.8125 C-15.92502276 -2.98499873 -7.77377601 -4.26795546 0 0 Z " fill="#EFB109" transform="translate(224.1875,285.75)"/>
<path d="M0 0 C3.54122751 1.00376343 4.35051947 2.44294916 6.21875 5.62890625 C6.78059273 9.65796044 6.68334033 13.64993417 6.609375 17.7109375 C6.60371521 18.88025314 6.59805542 20.04956879 6.59222412 21.25431824 C6.56985936 24.9837665 6.51966 28.71224905 6.46875 32.44140625 C6.44868525 34.97199132 6.43043445 37.50259147 6.4140625 40.03320312 C6.36999409 46.23209953 6.30307971 52.43043389 6.21875 58.62890625 C5.22875 58.62890625 4.23875 58.62890625 3.21875 58.62890625 C3.21875 45.09890625 3.21875 31.56890625 3.21875 17.62890625 C0.57875 17.62890625 -2.06125 17.62890625 -4.78125 17.62890625 C-7.5912846 15.83526714 -9.29065468 14.6100969 -10.78125 11.62890625 C-11.12959811 7.86674665 -11.28767431 5.48762572 -9.34375 2.19140625 C-6.11282306 0.22132885 -3.72173302 0.10833812 0 0 Z " fill="#E8E3E3" transform="translate(241.78125,209.37109375)"/>
<path d="M0 0 C1.5625 1.1875 1.5625 1.1875 3 3 C2.77629803 6.03737559 2.34643552 7.60337989 0.328125 9.9140625 C-8.46961159 17.1573118 -15.44499218 19.90011836 -27 19 C-30.5625 18 -30.5625 18 -33 17 C-33 14.69 -33 12.38 -33 10 C-31.90042969 10.04640625 -30.80085937 10.0928125 -29.66796875 10.140625 C-15.50080786 10.69419435 -15.50080786 10.69419435 -3.22265625 4.3984375 C-1.6546348 2.63475278 -1.6546348 2.63475278 0 0 Z " fill="#413D2F" transform="translate(230,293)"/>
<path d="M0 0 C1.32 0 2.64 0 4 0 C4 3.3 4 6.6 4 10 C7.3 10 10.6 10 14 10 C14 7.03 14 4.06 14 1 C15.65 1 17.3 1 19 1 C19.1567564 8.71589817 18.67453101 16.31516461 18 24 C16.68 24 15.36 24 14 24 C14 20.7 14 17.4 14 14 C10.37 14 6.74 14 3 14 C3 17.3 3 20.6 3 24 C1.68 24 0.36 24 -1 24 C-1.18451025 7.1070615 -1.18451025 7.1070615 0 0 Z " fill="#FDC10E" transform="translate(395,156)"/>
<path d="M0 0 C3.63502443 1.66003823 5.10890357 3.21871023 7.25 6.625 C7.77078125 7.44226563 8.2915625 8.25953125 8.828125 9.1015625 C9.21484375 9.72804687 9.6015625 10.35453125 10 11 C9.34 12.32 8.68 13.64 8 15 C5.35247996 12.42215154 3.05567935 10.08351902 1 7 C-0.65 7.33 -2.3 7.66 -4 8 C-3.62746094 8.54269531 -3.25492187 9.08539063 -2.87109375 9.64453125 C-2.39800781 10.35996094 -1.92492187 11.07539063 -1.4375 11.8125 C-0.96183594 12.52019531 -0.48617188 13.22789062 0.00390625 13.95703125 C1 16 1 16 0 19 C-3.7952131 17.50902342 -5.61042731 15.24299151 -8 12 C-8.99 12.99 -9.98 13.98 -11 15 C-9.35 17.97 -7.7 20.94 -6 24 C-7.32 24.33 -8.64 24.66 -10 25 C-11.33905267 23.2126038 -12.67109066 21.41995047 -14 19.625 C-14.7425 18.62726563 -15.485 17.62953125 -16.25 16.6015625 C-18 14 -18 14 -18 12 C-16.34765625 10.67138672 -16.34765625 10.67138672 -14.0625 9.1796875 C-13.25039063 8.64472656 -12.43828125 8.10976562 -11.6015625 7.55859375 C-10.74304688 7.00300781 -9.88453125 6.44742188 -9 5.875 C-7.71222656 5.03001953 -7.71222656 5.03001953 -6.3984375 4.16796875 C-4.26960002 2.77239751 -2.13673026 1.38344445 0 0 Z " fill="#FDC110" transform="translate(472,192)"/>
<path d="M0 0 C0.33 0 0.66 0 1 0 C1 39.93 1 79.86 1 121 C0.67 121 0.34 121 0 121 C-0.33 110.77 -0.66 100.54 -1 90 C-4.3 89.34 -7.6 88.68 -11 88 C-11 87.01 -11 86.02 -11 85 C-7.37 85 -3.74 85 0 85 C0 64.54 0 44.08 0 23 C-3.63 22.67 -7.26 22.34 -11 22 C-11 20.68 -11 19.36 -11 18 C-7.37 18.33 -3.74 18.66 0 19 C0 12.73 0 6.46 0 0 Z " fill="#BBBABA" transform="translate(349,196)"/>
<path d="M0 0 C1.32 0.66 2.64 1.32 4 2 C3.5422281 3.68765239 3.0837511 5.37511352 2.625 7.0625 C2.36976563 8.00222656 2.11453125 8.94195312 1.8515625 9.91015625 C0.92295489 13.2795536 -0.03984472 16.63945652 -1 20 C3.62 16.7 8.24 13.4 13 10 C14.32 10.66 15.64 11.32 17 12 C13.22180665 16.00936388 9.20415407 19.17270443 4.6875 22.3125 C3.71973633 22.9940918 3.71973633 22.9940918 2.73242188 23.68945312 C1.15802858 24.79735952 -0.42055646 25.89930525 -2 27 C-3.9375 26.1875 -3.9375 26.1875 -6 25 C-7.13424329 21.59727013 -6.84874505 20.72902175 -5.8203125 17.40234375 C-5.55089844 16.51869141 -5.28148437 15.63503906 -5.00390625 14.72460938 C-4.71386719 13.80486328 -4.42382812 12.88511719 -4.125 11.9375 C-3.84269531 11.01388672 -3.56039063 10.09027344 -3.26953125 9.13867188 C-1.17994048 2.35988095 -1.17994048 2.35988095 0 0 Z " fill="#FDC213" transform="translate(446,168)"/>
<path d="M0 0 C0.66 0.33 1.32 0.66 2 1 C2.48104938 4.36734563 2.24358051 5.67242621 0.1875 8.4375 C-6.44493252 14.42379296 -14.63757866 18.1560432 -23.5625 18.125 C-24.30628906 18.12757813 -25.05007812 18.13015625 -25.81640625 18.1328125 C-29.98046875 17.87954215 -29.98046875 17.87954215 -32 17 C-33.25 14.4375 -33.25 14.4375 -34 12 C-33.09378906 12.02320313 -32.18757812 12.04640625 -31.25390625 12.0703125 C-19.904745 12.23844822 -11.541216 12.07743956 -3 4 C-1.96967984 2.68995491 -0.9609072 1.36177646 0 0 Z " fill="#EDB204" transform="translate(232,299)"/>
<path d="M0 0 C4.95 0.33 9.9 0.66 15 1 C15 5.95 15 10.9 15 16 C13.35 16.33 11.7 16.66 10 17 C9.76925781 16.46890625 9.53851563 15.9378125 9.30078125 15.390625 C7.1746059 10.78531238 5.32430045 7.88286696 1 5 C0.01 4.34 -0.98 3.68 -2 3 C-1.34 2.01 -0.68 1.02 0 0 Z " fill="#F7F7F6" transform="translate(198,268)"/>
<path d="M0 0 C1.32 0.33 2.64 0.66 4 1 C2.48526781 8.98676972 -0.16802552 16.40122878 -3 24 C-4.32 23.67 -5.64 23.34 -7 23 C-6.42389687 17.45044957 -4.97901452 12.73970503 -2.9375 7.5625 C-2.65583984 6.83095703 -2.37417969 6.09941406 -2.08398438 5.34570312 C-1.39586753 3.56126454 -0.69885394 1.78026095 0 0 Z " fill="#FDC212" transform="translate(429,161)"/>
<path d="M0 0 C0 12.21 0 24.42 0 37 C-0.33 37 -0.66 37 -1 37 C-1.33 26.77 -1.66 16.54 -2 6 C-5.3 5.34 -8.6 4.68 -12 4 C-12 3.01 -12 2.02 -12 1 C-10.18755015 0.83278881 -8.37503867 0.66624559 -6.5625 0.5 C-5.55316406 0.4071875 -4.54382813 0.314375 -3.50390625 0.21875 C-1 0 -1 0 0 0 Z " fill="#B0B0B0" transform="translate(350,280)"/>
<path d="M0 0 C0.66 0.33 1.32 0.66 2 1 C1.37609375 1.53109375 0.7521875 2.0621875 0.109375 2.609375 C-2.40567212 5.45976173 -2.94794961 7.56056821 -3.75 11.25 C-3.99234375 12.32765625 -4.2346875 13.4053125 -4.484375 14.515625 C-4.65453125 15.33546875 -4.8246875 16.1553125 -5 17 C-5.99 17 -6.98 17 -8 17 C-8 19.31 -8 21.62 -8 24 C-8.33 24 -8.66 24 -9 24 C-9.38767961 17.02176705 -8.91960665 9.74422838 -4.46484375 4.03125 C-2.8125 2.375 -2.8125 2.375 0 0 Z " fill="#E6B72C" transform="translate(205,286)"/>
<path d="M0 0 C1.8515625 0.234375 1.8515625 0.234375 4 1 C5.95045453 3.76029238 7.12601979 6.74193453 8 10 C7.25 13.0625 7.25 13.0625 6 15 C4.07334125 12.11001187 3.03397318 9.62870988 1.875 6.375 C1.52179688 5.39273437 1.16859375 4.41046875 0.8046875 3.3984375 C0 1 0 1 0 0 Z " fill="#E8E8E8" transform="translate(236,274)"/>
<path d="M0 0 C0.66 0.33 1.32 0.66 2 1 C0.7934375 1.8971875 0.7934375 1.8971875 -0.4375 2.8125 C-3.22327984 4.80947276 -3.22327984 4.80947276 -4 8 C-4.99 7.67 -5.98 7.34 -7 7 C-8.89212737 6.77820215 -10.78884472 6.59385985 -12.6875 6.4375 C-13.68136719 6.35371094 -14.67523438 6.26992188 -15.69921875 6.18359375 C-16.83810547 6.09271484 -16.83810547 6.09271484 -18 6 C-18 5.67 -18 5.34 -18 5 C-16.80503906 4.83564453 -16.80503906 4.83564453 -15.5859375 4.66796875 C-9.80801301 3.80338881 -5.16621213 2.85501197 0 0 Z " fill="#C79D1F" transform="translate(227,317)"/>
<path d="M0 0 C0.66 0 1.32 0 2 0 C3.32 3.3 4.64 6.6 6 10 C4.35 9.67 2.7 9.34 1 9 C-1.125 3.375 -1.125 3.375 0 0 Z " fill="#E9E9E9" transform="translate(183,314)"/>
<path d="M0 0 C3.31665728 0 5.34686073 0.36992967 7.76953125 2.70703125 C9.40984289 4.77758857 10.86160561 6.61247246 12 9 C11.66015625 11.26171875 11.66015625 11.26171875 11 13 C10.73445312 12.44570313 10.46890625 11.89140625 10.1953125 11.3203125 C9.84210938 10.59585937 9.48890625 9.87140625 9.125 9.125 C8.60292969 8.04605469 8.60292969 8.04605469 8.0703125 6.9453125 C7.03442457 4.84864981 7.03442457 4.84864981 5 3 C2.41645782 2.83312552 2.41645782 2.83312552 0 3 C0 2.01 0 1.02 0 0 Z " fill="#777673" transform="translate(196,273)"/>
<path d="M0 0 C0.99 0 1.98 0 3 0 C4.35439668 2.70879335 4.06501451 5.00933268 4 8 C2.68 7.67 1.36 7.34 0 7 C0 4.69 0 2.38 0 0 Z " fill="#2D291C" transform="translate(197,303)"/>
<path d="M0 0 C1.79068573 2.6860286 2.66055791 4.6626589 3.625 7.6875 C3.88539063 8.49574219 4.14578125 9.30398437 4.4140625 10.13671875 C4.60742188 10.75160156 4.80078125 11.36648437 5 12 C4.01 12 3.02 12 2 12 C-1.57142857 4.71428571 -1.57142857 4.71428571 0 0 Z " fill="#B5B4B4" transform="translate(185,234)"/>
<path d="M0 0 C4.03174806 0.27489191 5.56894631 0.53491576 8.375 3.5625 C8.91125 4.366875 9.4475 5.17125 10 6 C5.96825194 5.72510809 4.43105369 5.46508424 1.625 2.4375 C0.820625 1.2309375 0.820625 1.2309375 0 0 Z " fill="#353125" transform="translate(201,316)"/>
<path d="M0 0 C1.98 0.99 3.96 1.98 6 3 C5.67 4.32 5.34 5.64 5 7 C2.5 5.1875 2.5 5.1875 0 3 C0 2.01 0 1.02 0 0 Z " fill="#FFD356" transform="translate(220,284)"/>
<path d="M0 0 C1.65 0 3.3 0 5 0 C5.33 1.65 5.66 3.3 6 5 C4.68 5 3.36 5 2 5 C1.34 3.35 0.68 1.7 0 0 Z " fill="#E1AC0F" transform="translate(198,311)"/>
</svg>
