<?xml version="1.0" encoding="UTF-8"?>
<svg version="1.1" xmlns="http://www.w3.org/2000/svg" width="500" height="500">
<path d="M0 0 C165 0 330 0 500 0 C500 165 500 330 500 500 C335 500 170 500 0 500 C0 335 0 170 0 0 Z " fill="#FEFEFE" transform="translate(0,0)"/>
<path d="M0 0 C30.69 0 61.38 0 93 0 C93 23 93 23 88 29 C86.67171551 31.11441565 86.67171551 31.11441565 85.75 33.125 C85.27820313 34.08792969 85.27820313 34.08792969 84.796875 35.0703125 C83.82210051 37.29758833 83.82210051 37.29758833 83 41 C77.72 41 72.44 41 67 41 C67 65.09 67 89.18 67 114 C53.14 114 39.28 114 25 114 C25 89.91 25 65.82 25 41 C16.75 41 8.5 41 0 41 C0 27.47 0 13.94 0 0 Z " fill="#181717" transform="translate(126,191)"/>
<path d="M0 0 C9.57 0 19.14 0 29 0 C29.33 12.87 29.66 25.74 30 39 C33.90609193 31.80584931 33.90609193 31.80584931 37.80834961 24.60961914 C38.29311768 23.71879639 38.77788574 22.82797363 39.27734375 21.91015625 C39.77484131 20.99371338 40.27233887 20.07727051 40.78491211 19.13305664 C42 17 42 17 43 16 C45.21855264 15.91216458 47.43988496 15.89305391 49.66015625 15.90234375 C50.65685585 15.90446617 50.65685585 15.90446617 51.6736908 15.90663147 C53.80333899 15.91224482 55.93288339 15.92479946 58.0625 15.9375 C59.50325369 15.94251329 60.94400903 15.94707649 62.38476562 15.95117188 C65.92321102 15.96221855 69.46159539 15.97949208 73 16 C71.77863972 19.9528117 70.35828596 23.42631905 68.28515625 27.00390625 C67.50301758 28.36225586 67.50301758 28.36225586 66.70507812 29.74804688 C66.16302734 30.67681641 65.62097656 31.60558594 65.0625 32.5625 C64.52431641 33.49513672 63.98613281 34.42777344 63.43164062 35.38867188 C59.2106257 42.69087155 59.2106257 42.69087155 57.25952148 45.55444336 C55.80935249 47.84517996 55.80935249 47.84517996 56.15551758 50.03442383 C57.12595272 52.29316142 58.23904737 54.34432163 59.51171875 56.44921875 C60.02283203 57.29806641 60.53394531 58.14691406 61.06054688 59.02148438 C61.86588867 60.34116211 61.86588867 60.34116211 62.6875 61.6875 C63.20505859 62.54794922 63.72261719 63.40839844 64.25585938 64.29492188 C67.32768884 69.37128265 70.52217512 74.32641627 73.90942383 79.19848633 C75 81 75 81 75 83 C70.83773496 83.22359275 66.67869784 83.38625784 62.51220703 83.49438477 C61.09752509 83.5394723 59.68325869 83.60076961 58.27001953 83.67895508 C46.58302056 84.30901528 46.58302056 84.30901528 42.87158203 81.23999023 C41.29548623 78.89700217 40.14170354 76.57982547 39 74 C38.16717773 72.60194612 37.31635466 71.21441028 36.4453125 69.83984375 C35.66914046 68.54069234 34.89614185 67.23964349 34.125 65.9375 C32.083125 62.5034375 32.083125 62.5034375 30 59 C29.67 66.92 29.34 74.84 29 83 C19.43 83 9.86 83 0 83 C0 55.61 0 28.22 0 0 Z " fill="#181717" transform="translate(322,225)"/>
<path d="M0 0 C6.17297515 2.96302807 12.38073358 7.82396715 15.5 14.0625 C15.59039906 15.7273064 15.61755257 17.39573421 15.61352539 19.06298828 C15.61341209 20.62438034 15.61341209 20.62438034 15.61329651 22.21731567 C15.60813522 23.34442963 15.60297394 24.47154358 15.59765625 25.6328125 C15.5962413 26.78417694 15.59482635 27.93554138 15.59336853 29.12179565 C15.58775716 32.81038986 15.5752027 36.49892405 15.5625 40.1875 C15.55748647 42.68359288 15.55292331 45.1796867 15.54882812 47.67578125 C15.5386336 53.8047294 15.51906032 59.93354727 15.5 66.0625 C7.58 66.0625 -0.34 66.0625 -8.5 66.0625 C-8.54898438 63.41476562 -8.59796875 60.76703125 -8.6484375 58.0390625 C-8.70241457 55.4807357 -8.75973485 52.92250421 -8.81738281 50.36425781 C-8.85571565 48.58340527 -8.89056089 46.80247416 -8.921875 45.02148438 C-8.96743271 42.46455766 -9.02544107 39.9081739 -9.0859375 37.3515625 C-9.09748871 36.55255524 -9.10903992 35.75354797 -9.12094116 34.93032837 C-9.07258944 30.52792788 -9.07258944 30.52792788 -11.5 27.0625 C-14.5 26.64583333 -14.5 26.64583333 -17.5 27.0625 C-19.79637779 29.82145635 -19.79637779 29.82145635 -19.25 32.625 C-18.66191948 35.21250567 -18.66191948 35.21250567 -16.5 37.0625 C-13.53 37.5575 -13.53 37.5575 -10.5 38.0625 C-10.5 47.3025 -10.5 56.5425 -10.5 66.0625 C-23.87545281 66.0625 -30.0582125 64.24825793 -39.37109375 55.28515625 C-46.2230812 48.13142991 -48.60637593 40.2738691 -48.9375 30.5 C-48.68481989 21.1398497 -44.77386946 13.89885431 -38.5 7.0625 C-27.6138551 -2.73724755 -13.75034092 -5.10121762 0 0 Z " fill="#181717" transform="translate(260.5,208.9375)"/>
<path d="M0 0 C9.9 0 19.8 0 30 0 C30 27.39 30 54.78 30 83 C20.1 83 10.2 83 0 83 C0 55.61 0 28.22 0 0 Z " fill="#1D1C1C" transform="translate(280,225)"/>
<path d="M0 0 C3.05093563 0.19550684 6.09205718 0.42361509 9.13671875 0.703125 C13.01179817 1.05308124 13.01179817 1.05308124 16.95703125 0.984375 C21.08760567 1.13263091 24.16864676 1.42344081 28 3 C31.0935706 7.12646524 32.75071032 11.28993404 34.35644531 16.15576172 C35.20783297 18.59558812 36.37581715 20.83307332 37.5625 23.125 C38.90010443 25.71693388 39.12139788 26.55415183 38.34375 29.41015625 C36.81842336 32.3499573 35.03122996 34.74758581 32.9375 37.3125 C32.22464844 38.19550781 31.51179688 39.07851562 30.77734375 39.98828125 C30.19082031 40.65214844 29.60429687 41.31601563 29 42 C28.67 42 28.34 42 28 42 C28 40.02 28 38.04 28 36 C0.94 36 -26.12 36 -54 36 C-52.68 33.69 -51.36 31.38 -50 29 C-49.41863281 27.96875 -48.83726562 26.9375 -48.23828125 25.875 C-43.28695938 18.48316857 -43.28695938 18.48316857 -39.06787109 17.59179688 C-33.27971726 17.29832053 -27.30818561 18.138497 -21.70874023 19.59667969 C-19.27089842 20.12207885 -17.46923435 20.38611688 -15 20 C-12.03310259 17.70319505 -10.12642194 14.85457572 -8.0625 11.75 C-7.49982422 10.95980469 -6.93714844 10.16960937 -6.35742188 9.35546875 C-4.87159132 7.25719907 -3.42577928 5.13935007 -2 3 C-1.34 2.01 -0.68 1.02 0 0 Z " fill="#FDFDFD" transform="translate(191,155)"/>
<path d="M0 0 C4.08394451 1.00779843 6.58286518 1.78099494 8.96484375 5.42578125 C10.40659888 8.15708383 11.61511963 10.94067793 12.77734375 13.80078125 C13.10154297 14.54328125 13.42574219 15.28578125 13.75976562 16.05078125 C15.61991759 20.55975774 16.59334314 23.63423496 14.96484375 28.42578125 C12.08492583 34.34492236 8.2452841 40.39774422 2.96484375 44.42578125 C-1.68346607 45.95566298 -6.22540357 44.94203244 -10.90332031 43.85986328 C-14.90107879 43.04584421 -18.97454806 42.77393715 -23.03515625 42.42578125 C-24.57781315 39.03945031 -26.09030612 35.64045784 -27.59765625 32.23828125 C-28.03529297 31.27857422 -28.47292969 30.31886719 -28.92382812 29.33007812 C-29.53774414 27.93305664 -29.53774414 27.93305664 -30.1640625 26.5078125 C-30.5463501 25.65421143 -30.9286377 24.80061035 -31.32250977 23.92114258 C-32.37986927 20.21875426 -31.60361464 17.72934562 -30.09326172 14.26586914 C-22.28505813 0.38301761 -15.71963238 -2.71232952 0 0 Z " fill="#FEFEFE" transform="translate(122.03515625,238.57421875)"/>
<path d="M0 0 C0.33 0 0.66 0 1 0 C1 4.62 1 9.24 1 14 C7.93 14.495 7.93 14.495 15 15 C15.33 16.175625 15.66 17.35125 16 18.5625 C20.13003638 31.05662875 20.13003638 31.05662875 28.453125 40.55859375 C30.81915395 41.35740711 30.81915395 41.35740711 33.1171875 41.67578125 C35 42 35 42 37 44 C36.9765625 46.1640625 36.9765625 46.1640625 36.625 48.625 C36.51414063 49.44226563 36.40328125 50.25953125 36.2890625 51.1015625 C36.19367188 51.72804688 36.09828125 52.35453125 36 53 C36.886875 53.0825 37.77375 53.165 38.6875 53.25 C43.64722294 54.37295614 45.99974892 56.56630679 48.875 60.6875 C50.340587 65.00283949 50.11413972 68.60208006 49 73 C48.34 73.99 47.68 74.98 47 76 C46.34 76 45.68 76 45 76 C44.505 77.485 44.505 77.485 44 79 C43.34 79 42.68 79 42 79 C42 79.66 42 80.32 42 81 C32.07101224 80.80872353 32.07101224 80.80872353 27.9375 77.6875 C23.9955383 72.21961764 22.9323693 67.72290223 24 61 C25.39776943 58.36034621 26.73705274 57.04742847 29 55 C29.66 55 30.32 55 31 55 C31.33 54.34 31.66 53.68 32 53 C32.99 53 33.98 53 35 53 C34.505 48.545 34.505 48.545 34 44 C31.03 43.67 28.06 43.34 25 43 C24.67 43.66 24.34 44.32 24 45 C25.485 45.495 25.485 45.495 27 46 C25.68 46.66 24.36 47.32 23 48 C22.505 47.505 22.505 47.505 22 47 C20.29333013 49.21657124 18.61044863 51.44570405 16.9375 53.6875 C16.45216797 54.31333984 15.96683594 54.93917969 15.46679688 55.58398438 C12.63044943 59.29332397 12.63044943 59.29332397 12.12109375 63.796875 C12.75963063 65.39747412 13.43226406 66.98460146 14.125 68.5625 C15.08884279 71.24749062 14.97354831 72.37141956 14 75 C11.32522069 72.32522069 10.3535886 69.507025 9 66 C9 65.01 9 64.02 9 63 C8.05125 63.020625 7.1025 63.04125 6.125 63.0625 C3 63 3 63 1 62 C1 65.63 1 69.26 1 73 C0.67 73 0.34 73 0 73 C0 48.91 0 24.82 0 0 Z " fill="#554B2F" transform="translate(193,232)"/>
<path d="M0 0 C3.27310868 0.63856635 6.27764773 1.50921591 9.4375 2.5625 C9.4375 14.7725 9.4375 26.9825 9.4375 39.5625 C12.0775 39.5625 14.7175 39.5625 17.4375 39.5625 C16.0625 42.5625 16.0625 42.5625 13.4375 45.5625 C10.06525038 46.36701283 6.86015753 45.9030195 3.4375 45.5625 C2.179375 45.52382812 0.92125 45.48515625 -0.375 45.4453125 C-10.20850898 44.94720009 -10.20850898 44.94720009 -13.45703125 41.625 C-14.79013782 38.98417937 -15.67250728 36.38268791 -16.5625 33.5625 C-17.53622442 31.45580936 -18.51542405 29.35164101 -19.5 27.25 C-21.74520407 22.34720743 -21.74520407 22.34720743 -21.01953125 19.23046875 C-10.08830359 -0.78569343 -10.08830359 -0.78569343 0 0 Z " fill="#FDFDFD" transform="translate(116.5625,192.4375)"/>
<path d="M0 0 C5.445 0.495 5.445 0.495 11 1 C11 13.87 11 26.74 11 40 C15.29 40 19.58 40 24 40 C21 45 21 45 19.046875 45.55859375 C16.35888753 45.41688013 13.68233256 45.2269145 11 45 C9.7521875 44.98582031 8.504375 44.97164063 7.21875 44.95703125 C3.15687727 44.74514222 -0.16457659 44.36884173 -4 43 C-7.16998192 39.38702605 -8.49477073 35.5156878 -10 31 C-10.8307523 29.18631554 -11.66385079 27.37370269 -12.5 25.5625 C-13.70355882 22.86816946 -14.15500589 21.61895455 -13.43359375 18.73828125 C-11.39213261 14.8389236 -9.07830394 11.23365636 -6.5625 7.625 C-6.09134766 6.87605469 -5.62019531 6.12710937 -5.13476562 5.35546875 C-3.62890625 3.2265625 -3.62890625 3.2265625 0 0 Z " fill="#FEFEFE" transform="translate(140,265)"/>
<path d="M0 0 C3.05093563 0.19550684 6.09205718 0.42361509 9.13671875 0.703125 C13.01179817 1.05308124 13.01179817 1.05308124 16.95703125 0.984375 C21.08760567 1.13263091 24.16864676 1.42344081 28 3 C31.0935706 7.12646524 32.75071032 11.28993404 34.35644531 16.15576172 C35.20783297 18.59558812 36.37581715 20.83307332 37.5625 23.125 C38.89923678 25.7152526 39.12041743 26.55510448 38.34765625 29.41015625 C36.8106979 32.36378925 34.9955619 34.74730416 32.875 37.3125 C31.78832031 38.63701172 31.78832031 38.63701172 30.6796875 39.98828125 C30.12539062 40.65214844 29.57109375 41.31601563 29 42 C28.2734375 40.26171875 28.2734375 40.26171875 28 38 C29.5390625 35.95703125 29.5390625 35.95703125 31.625 33.8125 C34.27680499 30.72741577 34.27680499 30.72741577 35.01171875 26.90625 C34.20384117 24.48713053 33.10490743 22.29930891 32 20 C31.65839844 18.80890625 31.31679687 17.6178125 30.96484375 16.390625 C29.79918138 12.50921204 28.44963588 9.28513668 26 6 C21.71107368 4.29733596 17.71117059 3.87826089 13.10668945 3.99414062 C11 4 11 4 8.53979492 3.70898438 C4.72563663 3.3647084 2.11410998 3.16033039 -1.02978516 5.52978516 C-2.94110954 7.67421035 -4.56911787 9.87740164 -6.1875 12.25 C-6.77080078 13.02730469 -7.35410156 13.80460938 -7.95507812 14.60546875 C-10.19848231 17.67348084 -10.19848231 17.67348084 -12 21 C-10.72172502 26.11309993 -8.80114409 31.04685375 -7 36 C-22.51 36 -38.02 36 -54 36 C-52.68 33.69 -51.36 31.38 -50 29 C-49.41863281 27.96875 -48.83726562 26.9375 -48.23828125 25.875 C-43.28695938 18.48316857 -43.28695938 18.48316857 -39.06787109 17.59179688 C-33.27971726 17.29832053 -27.30818561 18.138497 -21.70874023 19.59667969 C-19.27089842 20.12207885 -17.46923435 20.38611688 -15 20 C-12.03310259 17.70319505 -10.12642194 14.85457572 -8.0625 11.75 C-7.49982422 10.95980469 -6.93714844 10.16960937 -6.35742188 9.35546875 C-4.87159132 7.25719907 -3.42577928 5.13935007 -2 3 C-1.34 2.01 -0.68 1.02 0 0 Z " fill="#FCFCFC" transform="translate(191,155)"/>
<path d="M0 0 C10 0 10 0 13 1 C14.93737387 4.06364241 16.28415483 7.43913204 17.75 10.75 C18.17410156 11.6575 18.59820312 12.565 19.03515625 13.5 C19.43089844 14.38171875 19.82664063 15.2634375 20.234375 16.171875 C20.59756836 16.9772168 20.96076172 17.78255859 21.33496094 18.61230469 C22.14610634 21.52456682 21.91307136 23.13132912 21 26 C19.80078125 28.02050781 19.80078125 28.02050781 18.3125 29.953125 C17.77882812 30.654375 17.24515625 31.355625 16.6953125 32.078125 C16.13585937 32.79484375 15.57640625 33.5115625 15 34.25 C14.44054687 34.9821875 13.88109375 35.714375 13.3046875 36.46875 C9.27455357 41.72544643 9.27455357 41.72544643 8 43 C5.36 43 2.72 43 0 43 C0 28.81 0 14.62 0 0 Z " fill="#FEFEFE" transform="translate(194,249)"/>
<path d="M0 0 C0.66 0 1.32 0 2 0 C2.11730469 0.75925781 2.23460937 1.51851563 2.35546875 2.30078125 C3.40356584 6.09459746 4.26621387 8.11291745 7 11 C13.64825338 13.35923994 21.00381371 13.61835624 28 14 C28 14.99 28 15.98 28 17 C27.41734375 16.9278125 26.8346875 16.855625 26.234375 16.78125 C24.48399286 16.58309353 22.72916035 16.42246787 20.97265625 16.2890625 C18 16 18 16 15.12109375 15.3359375 C11.47559084 14.7631421 9.50659097 14.74089319 6 16 C0.93366845 20.44121161 -4.38842642 26.75100553 -7 33 C-6.16980123 40.72077293 -2.64577269 49.78917412 2 56 C6.40025738 58.37774325 10.0918602 58.17121418 15 58 C16.00546875 58.22945313 17.0109375 58.45890625 18.046875 58.6953125 C21.72122188 59.3854676 23.49151699 59.38038676 27 58 C32.60054043 53.25601281 37.47715126 46.92618116 40 40 C39.60690609 35.01908632 37.75488858 32.05947058 35 28 C35 27.01 35 26.02 35 25 C38 26 38 26 39.38671875 28.43359375 C39.81597656 29.42488281 40.24523437 30.41617187 40.6875 31.4375 C41.12449219 32.42621094 41.56148438 33.41492188 42.01171875 34.43359375 C43 37 43 37 43 39 C51.58 39.66 60.16 40.32 69 41 C69.66 39.68 70.32 38.36 71 37 C71.7570769 35.85513604 72.54031622 34.72717894 73.34765625 33.6171875 C73.78787109 33.00746094 74.22808594 32.39773438 74.68164062 31.76953125 C75.13732422 31.14433594 75.59300781 30.51914062 76.0625 29.875 C79.2800216 25.59313976 79.2800216 25.59313976 82 21 C82.99 21 83.98 21 85 21 C83.7309396 24.49859391 82.27609752 27.23581763 79.99609375 30.171875 C79.42052734 30.91824219 78.84496094 31.66460937 78.25195312 32.43359375 C77.65318359 33.19800781 77.05441406 33.96242188 76.4375 34.75 C75.83486328 35.52988281 75.23222656 36.30976563 74.61132812 37.11328125 C70.2237874 42.7762126 70.2237874 42.7762126 69 44 C64.65252075 44.32344485 60.37954913 44.04819672 56.0625 43.5 C55.41079834 43.42015869 54.75909668 43.34031738 54.08764648 43.25805664 C52.6038386 43.07464126 51.12413396 42.85658387 49.64868164 42.61499023 C46.8649948 42.34216544 44.72423588 42.3276717 42 43 C39.12498966 45.77522282 37.35498422 49.11632493 35.375 52.5625 C29.71519766 61.28337632 29.71519766 61.28337632 26.00390625 62.83398438 C21.14420262 63.49158343 16.6883118 62.19944627 12 61 C9.77104902 60.85090629 7.54189859 60.70474384 5.3125 60.5625 C2.03446503 59.95562055 0.52105455 59.6026215 -1.671875 57.06640625 C-3.03942979 54.42837618 -4.02481555 51.80644686 -5 49 C-5.9312181 46.830626 -6.86871155 44.66393485 -7.8125 42.5 C-10 37.27692308 -10 37.27692308 -10 35 C-10.67579102 34.94465088 -11.35158203 34.88930176 -12.04785156 34.83227539 C-15.11552698 34.57909469 -18.18275596 34.3208521 -21.25 34.0625 C-22.31347656 33.97548828 -23.37695312 33.88847656 -24.47265625 33.79882812 C-26.00986328 33.66831055 -26.00986328 33.66831055 -27.578125 33.53515625 C-28.52075195 33.456604 -29.46337891 33.37805176 -30.43457031 33.29711914 C-32.70749522 33.03387689 -34.80075595 32.61768892 -37 32 C-37.66 29.69 -38.32 27.38 -39 25 C-38.01 25.33 -37.02 25.66 -36 26 C-35.3125 28.0625 -35.3125 28.0625 -35 30 C-33.94941406 30.06058594 -32.89882812 30.12117188 -31.81640625 30.18359375 C-30.39843032 30.26810887 -28.98046198 30.35275116 -27.5625 30.4375 C-26.87478516 30.47681641 -26.18707031 30.51613281 -25.47851562 30.55664062 C-24.78564453 30.59853516 -24.09277344 30.64042969 -23.37890625 30.68359375 C-22.66557129 30.7196875 -21.95223633 30.75578125 -21.21728516 30.79296875 C-19 31 -19 31 -16.68505859 31.53515625 C-14.28091632 32.04652477 -12.43995389 32.33293883 -10 32 C-7.17334779 29.81785638 -5.41567933 27.10884607 -3.5 24.125 C-2.97664063 23.36574219 -2.45328125 22.60648437 -1.9140625 21.82421875 C-0.95181462 20.4257186 -0.00302732 19.0177946 0.92773438 17.59814453 C2 16 2 16 3 15 C2.57996962 10.63168406 1.67916713 7.03000111 0 3 C0 2.01 0 1.02 0 0 Z " fill="#AFAFAF" transform="translate(248,287)"/>
<path d="M0 0 C4.62 0 9.24 0 14 0 C14 10.56 14 21.12 14 32 C4 31 4 31 1.91503906 28.93041992 C1.53573242 28.03943604 1.15642578 27.14845215 0.765625 26.23046875 C0.33765625 25.25916016 -0.0903125 24.28785156 -0.53125 23.28710938 C-0.9334375 22.26423828 -1.335625 21.24136719 -1.75 20.1875 C-2.19859375 19.17623047 -2.6471875 18.16496094 -3.109375 17.12304688 C-6.235759 9.7320797 -6.235759 9.7320797 -5.35253906 6.98950195 C-3.70269635 4.56268458 -1.83318181 2.29147726 0 0 Z " fill="#FDFDFD" transform="translate(137,232)"/>
<path d="M0 0 C3.05093563 0.19550684 6.09205718 0.42361509 9.13671875 0.703125 C13.01179817 1.05308124 13.01179817 1.05308124 16.95703125 0.984375 C21.08760567 1.13263091 24.16864676 1.42344081 28 3 C31.0935706 7.12646524 32.75071032 11.28993404 34.35644531 16.15576172 C35.20783297 18.59558812 36.37581715 20.83307332 37.5625 23.125 C38.89923678 25.7152526 39.12041743 26.55510448 38.34765625 29.41015625 C36.8106979 32.36378925 34.9955619 34.74730416 32.875 37.3125 C31.78832031 38.63701172 31.78832031 38.63701172 30.6796875 39.98828125 C30.12539062 40.65214844 29.57109375 41.31601563 29 42 C28.2734375 40.26171875 28.2734375 40.26171875 28 38 C29.5390625 35.95703125 29.5390625 35.95703125 31.625 33.8125 C34.27680499 30.72741577 34.27680499 30.72741577 35.01171875 26.90625 C34.20384117 24.48713053 33.10490743 22.29930891 32 20 C31.65839844 18.80890625 31.31679687 17.6178125 30.96484375 16.390625 C29.79918138 12.50921204 28.44963588 9.28513668 26 6 C21.71107368 4.29733596 17.71117059 3.87826089 13.10668945 3.99414062 C11 4 11 4 8.53979492 3.70898438 C4.72563663 3.3647084 2.11410998 3.16033039 -1.02978516 5.52978516 C-2.94110954 7.67421035 -4.56911787 9.87740164 -6.1875 12.25 C-6.77080078 13.02730469 -7.35410156 13.80460938 -7.95507812 14.60546875 C-11.09934238 18.45221747 -11.09934238 18.45221747 -11.71044922 23.08203125 C-11.47600098 23.71496094 -11.24155273 24.34789062 -11 25 C-10.67902344 25.92296875 -10.35804688 26.8459375 -10.02734375 27.796875 C-9.48787109 29.25867188 -9.48787109 29.25867188 -8.9375 30.75 C-8.39416016 32.22726563 -8.39416016 32.22726563 -7.83984375 33.734375 C-7.56269531 34.48203125 -7.28554687 35.2296875 -7 36 C-7.99 36 -8.98 36 -10 36 C-10.83790789 34.21046815 -11.67019396 32.41830305 -12.5 30.625 C-12.9640625 29.62726563 -13.428125 28.62953125 -13.90625 27.6015625 C-15 25 -15 25 -15 23 C-16.05058594 22.93941406 -17.10117188 22.87882812 -18.18359375 22.81640625 C-19.60156968 22.73189113 -21.01953802 22.64724884 -22.4375 22.5625 C-23.12521484 22.52318359 -23.81292969 22.48386719 -24.52148438 22.44335938 C-29.72083798 22.12897985 -34.80685625 21.57701597 -40 21 C-43.63 25.95 -47.26 30.9 -51 36 C-51.99 35.67 -52.98 35.34 -54 35 C-52.022126 32.35319808 -50.04248453 29.70772337 -48.0625 27.0625 C-47.49853516 26.30775391 -46.93457031 25.55300781 -46.35351562 24.77539062 C-45.81533203 24.05673828 -45.27714844 23.33808594 -44.72265625 22.59765625 C-44.22515869 21.93258057 -43.72766113 21.26750488 -43.21508789 20.58227539 C-42 19 -42 19 -41 18 C-38.31925823 18.06582178 -35.67346894 18.19405456 -33 18.375 C-32.26910156 18.41882813 -31.53820312 18.46265625 -30.78515625 18.5078125 C-29.68494141 18.57742187 -29.68494141 18.57742187 -28.5625 18.6484375 C-27.81363525 18.69033203 -27.06477051 18.73222656 -26.29321289 18.77539062 C-24 19 -24 19 -21.67358398 19.55273438 C-19.25638934 20.07969357 -17.45272737 20.36134182 -15 20 C-12.03263329 17.70428783 -10.12618055 14.85421262 -8.0625 11.75 C-7.49982422 10.95980469 -6.93714844 10.16960937 -6.35742188 9.35546875 C-4.87159132 7.25719907 -3.42577928 5.13935007 -2 3 C-1.34 2.01 -0.68 1.02 0 0 Z " fill="#AFAFAF" transform="translate(191,155)"/>
<path d="M0 0 C0.33 0 0.66 0 1 0 C1 4.62 1 9.24 1 14 C7.93 14.495 7.93 14.495 15 15 C15.33 16.175625 15.66 17.35125 16 18.5625 C20.13003638 31.05662875 20.13003638 31.05662875 28.453125 40.55859375 C30.81915395 41.35740711 30.81915395 41.35740711 33.1171875 41.67578125 C35 42 35 42 37 44 C36.9765625 46.6015625 36.9765625 46.6015625 36.625 49.625 C36.51414063 50.62789063 36.40328125 51.63078125 36.2890625 52.6640625 C36.14597656 53.82035156 36.14597656 53.82035156 36 55 C35.67 55 35.34 55 35 55 C34.67 51.37 34.34 47.74 34 44 C31.03 43.67 28.06 43.34 25 43 C24.67 43.66 24.34 44.32 24 45 C25.485 45.495 25.485 45.495 27 46 C25.68 46.66 24.36 47.32 23 48 C22.505 47.505 22.505 47.505 22 47 C20.29333013 49.21657124 18.61044863 51.44570405 16.9375 53.6875 C16.45216797 54.31333984 15.96683594 54.93917969 15.46679688 55.58398438 C12.63044943 59.29332397 12.63044943 59.29332397 12.12109375 63.796875 C12.75963063 65.39747412 13.43226406 66.98460146 14.125 68.5625 C15.08884279 71.24749062 14.97354831 72.37141956 14 75 C11.32522069 72.32522069 10.3535886 69.507025 9 66 C9 65.01 9 64.02 9 63 C8.05125 63.020625 7.1025 63.04125 6.125 63.0625 C3 63 3 63 1 62 C1 65.63 1 69.26 1 73 C0.67 73 0.34 73 0 73 C0 48.91 0 24.82 0 0 Z M1 17 C1 31.19 1 45.38 1 60 C8.53871413 60.85708047 8.53871413 60.85708047 11.57421875 57.83984375 C12.27160156 56.88207031 12.96898437 55.92429687 13.6875 54.9375 C14.80318359 53.42929687 14.80318359 53.42929687 15.94140625 51.890625 C16.62074219 50.93671875 17.30007812 49.9828125 18 49 C18.56589844 48.31421875 19.13179687 47.6284375 19.71484375 46.921875 C21.80006754 44.35722303 23.04052652 42.75424356 22.859375 39.3828125 C21.72682995 34.92470336 20.00033373 30.87843399 18.125 26.6875 C17.77308594 25.86443359 17.42117187 25.04136719 17.05859375 24.19335938 C16.71183594 23.41154297 16.36507812 22.62972656 16.0078125 21.82421875 C15.69473145 21.11354248 15.38165039 20.40286621 15.05908203 19.6706543 C14.03057198 17.65911502 14.03057198 17.65911502 11 17 C7.7 17 4.4 17 1 17 Z " fill="#91908F" transform="translate(193,232)"/>
<path d="M0 0 C3.05769209 0.1959398 6.09920582 0.42878751 9.1484375 0.734375 C13.0007566 1.09374695 13.0007566 1.09374695 16.8515625 0.703125 C24.57566242 0.54581136 24.57566242 0.54581136 28 3 C32.71803528 9.47910021 38.58002386 20.4514795 37.72265625 28.65307617 C37 31 37 31 35 34 C33.515 33.505 33.515 33.505 32 33 C32.556875 32.525625 33.11375 32.05125 33.6875 31.5625 C35.41575022 28.87498673 35.41575022 28.87498673 34.0625 25.125 C33.40550301 23.40470526 32.71247629 21.69806848 32 20 C31.75443359 19.4117041 31.50886719 18.8234082 31.25585938 18.21728516 C29.54282399 14.12746528 27.78421255 10.0592279 26 6 C22.95872183 5.66274935 19.91705809 5.33007668 16.875 5 C15.59109375 4.85691406 15.59109375 4.85691406 14.28125 4.7109375 C12.60567747 4.53049123 10.9282058 4.36679177 9.24926758 4.22094727 C7 4 7 4 3.81640625 3.40234375 C-1.09841172 4.44529403 -3.18766599 8.60286247 -5.9375 12.5625 C-6.53884766 13.36236328 -7.14019531 14.16222656 -7.75976562 14.98632812 C-11.46681699 20.05194296 -11.46681699 20.05194296 -11.87890625 26.08984375 C-11.58886719 27.05019531 -11.29882812 28.01054687 -11 29 C-11.66 29 -12.32 29 -13 29 C-13.66 27.02 -14.32 25.04 -15 23 C-16.78857422 22.94392578 -16.78857422 22.94392578 -18.61328125 22.88671875 C-20.179719 22.82105968 -21.74612384 22.75461232 -23.3125 22.6875 C-24.09818359 22.66494141 -24.88386719 22.64238281 -25.69335938 22.61914062 C-26.45068359 22.58369141 -27.20800781 22.54824219 -27.98828125 22.51171875 C-28.68477783 22.48553467 -29.38127441 22.45935059 -30.09887695 22.43237305 C-32.49350359 21.88776232 -33.43272547 20.84170838 -35 19 C-26.67507945 18.86352589 -26.67507945 18.86352589 -23.35522461 19.53466797 C-20.39683486 20.10384602 -17.99846859 20.35879339 -15 20 C-11.67545165 17.60535886 -9.62849601 14.57283091 -7.375 11.1875 C-6.46041016 9.9180957 -6.46041016 9.9180957 -5.52734375 8.62304688 C-2.53376358 4.45218523 -2.53376358 4.45218523 0 0 Z " fill="#ADADAD" transform="translate(305,191)"/>
<path d="M0 0 C4.82856166 -0.38628493 8.11485977 -0.45837619 12.5 1.8125 C15 4 15 4 16 7 C9.54189944 13.81688392 9.54189944 13.81688392 3.80078125 14.23046875 C2.07408203 14.20919922 2.07408203 14.20919922 0.3125 14.1875 C-1.42580078 14.17783203 -1.42580078 14.17783203 -3.19921875 14.16796875 C-6 14 -6 14 -7 13 C-7.45545171 10.34319839 -7.40639651 8.64598848 -5.953125 6.3359375 C-4.625 4.6875 -4.625 4.6875 -2 2 C-1.34 2 -0.68 2 0 2 C0 1.34 0 0.68 0 0 Z " fill="#EFB30E" transform="translate(224,285)"/>
<path d="M0 0 C3.0625 0.3125 3.0625 0.3125 4.74926758 1.30786133 C6.86548697 4.53825311 6.3116649 7.98163071 6.13671875 11.69921875 C6.11027786 12.51622757 6.08383698 13.33323639 6.05659485 14.17500305 C5.96883415 16.78407907 5.85968662 19.39176267 5.75 22 C5.68674082 23.76883034 5.62487477 25.53771109 5.56445312 27.30664062 C5.41329406 31.64267754 5.24295018 35.97758727 5.0625 40.3125 C4.7325 40.3125 4.4025 40.3125 4.0625 40.3125 C4.0625 31.0725 4.0625 21.8325 4.0625 12.3125 C2.0825 12.3125 0.1025 12.3125 -1.9375 12.3125 C-4.375 10.6875 -4.375 10.6875 -5.9375 8.3125 C-5.74504015 3.50100373 -5.22250301 0.55558543 0 0 Z " fill="#E2DDDD" transform="translate(245.9375,234.6875)"/>
<path d="M0 0 C0.66 0 1.32 0 2 0 C2.8125 1.6875 2.8125 1.6875 3 4 C-0.6851173 8.44381793 -5.15906716 12.14103929 -11 13 C-15.25425693 13.22790662 -18.35008475 13.33594576 -22 11 C-22 9.35 -22 7.7 -22 6 C-21.07058594 6.04640625 -20.14117187 6.0928125 -19.18359375 6.140625 C-9.36644007 6.47679916 -9.36644007 6.47679916 -1 2 C-0.67 1.34 -0.34 0.68 0 0 Z " fill="#403B2C" transform="translate(239,292)"/>
<path d="M0 0 C0.99 0 1.98 0 3 0 C3 2.31 3 4.62 3 7 C5.31 7 7.62 7 10 7 C10 4.69 10 2.38 10 0 C10.99 0 11.98 0 13 0 C13 5.28 13 10.56 13 16 C11.68 16 10.36 16 9 16 C9 14.02 9 12.04 9 10 C7.02 10 5.04 10 3 10 C3 11.98 3 13.96 3 16 C1.68 16 0.36 16 -1 16 C-0.67 10.72 -0.34 5.44 0 0 Z " fill="#FDC829" transform="translate(353,198)"/>
<path d="M0 0 C2.96404505 2.80804268 5.44499019 5.18315774 7 9 C5.68 9 4.36 9 3 9 C2.34 7.35 1.68 5.7 1 4 C0.01 4.99 -0.98 5.98 -2 7 C-1.01 8.485 -1.01 8.485 0 10 C0 10.99 0 11.98 0 13 C-3.875 11.25 -3.875 11.25 -5 9 C-5.66 9 -6.32 9 -7 9 C-6.7834375 9.86625 -6.7834375 9.86625 -6.5625 10.75 C-6.04166667 12.83333333 -5.52083333 14.91666667 -5 17 C-5.99 17 -6.98 17 -8 17 C-12.02362036 12.08224179 -12.02362036 12.08224179 -11.95703125 9.03125 C-10.51841294 5.97785603 -8.29853244 4.96004238 -5.4375 3.25 C-4.42558594 2.63640625 -3.41367187 2.0228125 -2.37109375 1.390625 C-1.58863281 0.93171875 -0.80617188 0.4728125 0 0 Z " fill="#FDC316" transform="translate(406,222)"/>
<path d="M0 0 C0.33 0.66 0.66 1.32 1 2 C0.26652344 2.95261719 -0.46695313 3.90523438 -1.22265625 4.88671875 C-2.17006255 6.1530539 -3.11663386 7.42001405 -4.0625 8.6875 C-4.54783203 9.31333984 -5.03316406 9.93917969 -5.53320312 10.58398438 C-8.36955057 14.29332397 -8.36955057 14.29332397 -8.87890625 18.796875 C-8.24036937 20.39747412 -7.56773594 21.98460146 -6.875 23.5625 C-5.91115721 26.24749062 -6.02645169 27.37141956 -7 30 C-9.67477931 27.32522069 -10.6464114 24.507025 -12 21 C-12 20.01 -12 19.02 -12 18 C-12.94875 18.020625 -13.8975 18.04125 -14.875 18.0625 C-18 18 -18 18 -20 17 C-20 16.34 -20 15.68 -20 15 C-18.18628906 14.95359375 -18.18628906 14.95359375 -16.3359375 14.90625 C-12.89571236 14.47565329 -11.30897335 13.77822034 -9.1015625 11.09375 C-8.25199186 9.9127679 -7.42662529 8.71403702 -6.625 7.5 C-2.13009788 1.06504894 -2.13009788 1.06504894 0 0 Z " fill="#AFAFAF" transform="translate(214,277)"/>
<path d="M0 0 C0.66 0.33 1.32 0.66 2 1 C1.835 2.0725 1.67 3.145 1.5 4.25 C0.91189085 8.03028752 0.91189085 8.03028752 1 12 C1.45890625 11.62746094 1.9178125 11.25492188 2.390625 10.87109375 C3.00421875 10.39800781 3.6178125 9.92492187 4.25 9.4375 C4.85328125 8.96183594 5.4565625 8.48617187 6.078125 7.99609375 C8 7 8 7 10.234375 7.34765625 C10.81703125 7.56292969 11.3996875 7.77820313 12 8 C10.34348188 9.34592097 8.67344761 10.67518731 7 12 C6.33742188 12.54011719 5.67484375 13.08023438 4.9921875 13.63671875 C4.29351562 14.18972656 3.59484375 14.74273437 2.875 15.3125 C2.21242188 15.84488281 1.54984375 16.37726563 0.8671875 16.92578125 C0.25101562 17.28027344 -0.36515625 17.63476562 -1 18 C-1.99 17.67 -2.98 17.34 -4 17 C-3.58411954 10.80481527 -2.39748106 5.73310689 0 0 Z " fill="#FDC316" transform="translate(388,206)"/>
<path d="M0 0 C0.66 0 1.32 0 2 0 C2 1.98 2 3.96 2 6 C-11.51641138 12.89803063 -11.51641138 12.89803063 -19 12 C-21.4375 11 -21.4375 11 -23 10 C-23 9.34 -23 8.68 -23 8 C-22.05640625 8.05220703 -22.05640625 8.05220703 -21.09375 8.10546875 C-13.47841091 8.34631532 -7.81809617 7.63430729 -2.125 2.3125 C-1.42375 1.549375 -0.7225 0.78625 0 0 Z " fill="#F0B505" transform="translate(241,296)"/>
<path d="M0 0 C1.47968324 0.14049518 2.95874516 0.28754826 4.4375 0.4375 C5.67306641 0.55931641 5.67306641 0.55931641 6.93359375 0.68359375 C9 1 9 1 10 2 C10.07179964 3.51928038 10.08392007 5.04167482 10.0625 6.5625 C10.05347656 7.38878906 10.04445312 8.21507812 10.03515625 9.06640625 C10.02355469 9.70449219 10.01195312 10.34257812 10 11 C8.35 11.66 6.7 12.32 5 13 C4.67 11.02 4.34 9.04 4 7 C3.34 7 2.68 7 2 7 C1.67 6.01 1.34 5.02 1 4 C0.34 3.67 -0.32 3.34 -1 3 C-0.67 2.01 -0.34 1.02 0 0 Z " fill="#EFEFEE" transform="translate(218,274)"/>
<path d="M0 0 C3.3 0 6.6 0 10 0 C11.7093778 3.71951671 13.38854861 7.45192173 15.0625 11.1875 C15.79049805 12.77014648 15.79049805 12.77014648 16.53320312 14.38476562 C17.21479492 15.91713867 17.21479492 15.91713867 17.91015625 17.48046875 C18.54642944 18.88655396 18.54642944 18.88655396 19.19555664 20.32104492 C20.11721055 23.39033425 19.97626491 24.97342106 19 28 C18.34 28.99 17.68 29.98 17 31 C16.01 30.67 15.02 30.34 14 30 C14.556875 29.525625 15.11375 29.05125 15.6875 28.5625 C17.41575022 25.87498673 17.41575022 25.87498673 16.0625 22.125 C15.38747636 20.41169848 14.69789728 18.70411221 14 17 C13.37351562 15.20369141 13.37351562 15.20369141 12.734375 13.37109375 C10.5487922 6.59783861 10.5487922 6.59783861 5.83203125 1.66015625 C3.4157717 0.99558785 3.4157717 0.99558785 0 1 C0 0.67 0 0.34 0 0 Z " fill="#ABABAB" transform="translate(323,194)"/>
<path d="M0 0 C2.64 0 5.28 0 8 0 C8 16.5 8 33 8 50 C7.67 49.34 7.34 48.68 7 48 C4.69 48 2.38 48 0 48 C0 47.01 0 46.02 0 45 C2.31 45.33 4.62 45.66 7 46 C7 31.48 7 16.96 7 2 C4.69 2 2.38 2 0 2 C0 1.34 0 0.68 0 0 Z " fill="#DDDDDD" transform="translate(314,238)"/>
<path d="M0 0 C6.93 0.495 6.93 0.495 14 1 C14.433125 2.36125 14.86625 3.7225 15.3125 5.125 C16.57735623 8.93763807 18.09147985 12.45560543 20 16 C19.34 16.66 18.68 17.32 18 18 C17.16235732 16.04350603 16.33000941 14.08474444 15.5 12.125 C15.0359375 11.03445313 14.571875 9.94390625 14.09375 8.8203125 C13 6 13 6 13 4 C8.71 3.67 4.42 3.34 0 3 C0 2.01 0 1.02 0 0 Z " fill="#B5B5B5" transform="translate(194,246)"/>
<path d="M0 0 C7.35251669 0.53410863 14.67902003 1.13140916 22 2 C21.67 2.99 21.34 3.98 21 5 C6.21867882 4.22095672 6.21867882 4.22095672 0 2 C0 1.34 0 0.68 0 0 Z " fill="#B6B6B6" transform="translate(305,191)"/>
<path d="M0 0 C0.99 0.33 1.98 0.66 3 1 C3.33 2.32 3.66 3.64 4 5 C9.28 5.33 14.56 5.66 20 6 C19.67 6.99 19.34 7.98 19 9 C16.9163691 8.85848172 14.83310062 8.71162064 12.75 8.5625 C11.58984375 8.48128906 10.4296875 8.40007812 9.234375 8.31640625 C6.69022624 8.06752213 4.44046752 7.71885058 2 7 C1.34 4.69 0.68 2.38 0 0 Z " fill="#B8B8B8" transform="translate(209,312)"/>
<path d="M0 0 C0.99 0.33 1.98 0.66 3 1 C2.54705135 2.75140143 2.08741252 4.50107344 1.625 6.25 C1.36976563 7.22453125 1.11453125 8.1990625 0.8515625 9.203125 C0.10401491 11.65837303 -0.77123817 13.75617405 -2 16 C-2.99 16 -3.98 16 -5 16 C-3.41078475 10.63904723 -1.81027062 5.29156027 0 0 Z " fill="#FDC41A" transform="translate(376,201)"/>
<path d="M0 0 C5.77759884 -0.12036664 11.27959989 0.1679418 17 1 C17 1.66 17 2.32 17 3 C14.72975032 3.08097324 12.45867925 3.13917704 10.1875 3.1875 C8.29064453 3.23970703 8.29064453 3.23970703 6.35546875 3.29296875 C3 3 3 3 1.05078125 1.48828125 C0.70402344 0.99714844 0.35726563 0.50601563 0 0 Z " fill="#ADADAD" transform="translate(270,210)"/>
<path d="M0 0 C6.35987804 -0.20190089 11.85221129 0.3722167 18 2 C18 2.33 18 2.66 18 3 C15.9377952 3.054348 13.87517184 3.09294961 11.8125 3.125 C10.66394531 3.14820313 9.51539063 3.17140625 8.33203125 3.1953125 C5.08259628 3.00484152 2.91339479 2.39360127 0 1 C0 0.67 0 0.34 0 0 Z " fill="#ABABAB" transform="translate(295,327)"/>
<path d="M0 0 C0.33 0.66 0.66 1.32 1 2 C-0.4375 4.5 -0.4375 4.5 -3 7 C-6.04256578 7.4451258 -8.9465865 7.29359745 -12 7 C-10.69921875 5.51171875 -10.69921875 5.51171875 -9 4 C-5.8125 3.8125 -5.8125 3.8125 -3 4 C-2.67 3.01 -2.34 2.02 -2 1 C-1.34 0.67 -0.68 0.34 0 0 Z " fill="#B5B5B5" transform="translate(320,324)"/>
<path d="M0 0 C1.62580966 0.11398665 3.25067157 0.24155659 4.875 0.375 C5.77992188 0.44460937 6.68484375 0.51421875 7.6171875 0.5859375 C10 1 10 1 12 3 C8.33694766 3.74926071 5.57644848 4.2380014 2 3 C2 2.34 2 1.68 2 1 C1.34 0.67 0.68 0.34 0 0 Z " fill="#B4B4B4" transform="translate(163,174)"/>
<path d="M0 0 C0.99 0.33 1.98 0.66 3 1 C3.6875 3.0625 3.6875 3.0625 4 5 C5.65 5 7.3 5 9 5 C8.67 5.66 8.34 6.32 8 7 C6.02 7 4.04 7 2 7 C1.34 4.69 0.68 2.38 0 0 Z " fill="#AEAEAE" transform="translate(209,312)"/>
<path d="M0 0 C5.445 1.485 5.445 1.485 11 3 C11 3.33 11 3.66 11 4 C7.7 4 4.4 4 1 4 C0.67 2.68 0.34 1.36 0 0 Z " fill="#A8A8A8" transform="translate(133,306)"/>
<path d="M0 0 C2.64 0 5.28 0 8 0 C8 1.65 8 3.3 8 5 C7.67 4.34 7.34 3.68 7 3 C4.69 3 2.38 3 0 3 C0 2.01 0 1.02 0 0 Z " fill="#B1B1B1" transform="translate(314,283)"/>
<path d="M0 0 C0.99 0 1.98 0 3 0 C3.99 2.64 4.98 5.28 6 8 C5.01 8.33 4.02 8.66 3 9 C2.01 6.03 1.02 3.06 0 0 Z " fill="#E9E8E8" transform="translate(244,279)"/>
<path d="M0 0 C0.33 0 0.66 0 1 0 C1 1.98 1 3.96 1 6 C-0.98 6.66 -2.96 7.32 -5 8 C-3.6299034 5.0490227 -2.06764583 2.51713405 0 0 Z " fill="#E6B72C" transform="translate(242,296)"/>
<path d="M0 0 C0.33 0.66 0.66 1.32 1 2 C0.01 3.485 0.01 3.485 -1 5 C-3.625 5.1875 -3.625 5.1875 -6 5 C-6 4.01 -6 3.02 -6 2 C-4.02 1.34 -2.04 0.68 0 0 Z " fill="#B7B7B7" transform="translate(277,344)"/>
<path d="M0 0 C2.64 0 5.28 0 8 0 C8 0.99 8 1.98 8 3 C5.36 2.67 2.72 2.34 0 2 C0 1.34 0 0.68 0 0 Z " fill="#AAAAAA" transform="translate(268,301)"/>
<path d="M0 0 C2.72426311 2.35277269 3.8141763 4.62496331 5 8 C4.01 8 3.02 8 2 8 C0.23537317 4.91190305 0 3.76687864 0 0 Z " fill="#ACACAC" transform="translate(213,262)"/>
<path d="M0 0 C0.66 0 1.32 0 2 0 C1.38722388 2.96175123 0.74627478 4.38058783 -1 7 C-1.99 6.67 -2.98 6.34 -4 6 C-2.7260411 3.96166576 -1.38938077 1.96147874 0 0 Z " fill="#A5A5A5" transform="translate(341,218)"/>
<path d="M0 0 C2.97 0 5.94 0 9 0 C8.01 1.485 8.01 1.485 7 3 C4.0625 2.625 4.0625 2.625 1 2 C0.67 1.34 0.34 0.68 0 0 Z " fill="#BCBCBC" transform="translate(270,210)"/>
</svg>
